<svg id="background" xmlns="http://www.w3.org/2000/svg" xmlns:xlink="http://www.w3.org/1999/xlink" width="1920" height="1080" viewBox="0 0 1920 1080">
  <defs>
    <style>
      .cls-1 {
        fill: url(#linear-gradient);
      }

      .cls-2 {
        fill: #d9e5f9;
      }

      .cls-3 {
        fill: url(#linear-gradient-2);
      }

      .cls-4 {
        fill: url(#linear-gradient-3);
      }

      .cls-5 {
        fill: #cbdbf4;
      }

      .cls-6 {
        fill: url(#linear-gradient-4);
      }

      .cls-7 {
        fill: #fceded;
      }

      .cls-8 {
        fill: #f5e1e0;
      }

      .cls-9 {
        fill: #e9f3fd;
      }

      .cls-10 {
        fill: #f6fafe;
      }

      .cls-11 {
        fill: #bbe2ff;
      }

      .cls-12, .cls-13, .cls-14, .cls-15, .cls-16, .cls-17, .cls-18, .cls-19, .cls-20, .cls-21, .cls-22, .cls-23 {
        opacity: 0.61;
      }

      .cls-12 {
        fill: url(#radial-gradient);
      }

      .cls-13 {
        fill: url(#radial-gradient-2);
      }

      .cls-14 {
        fill: url(#radial-gradient-3);
      }

      .cls-15 {
        fill: url(#radial-gradient-4);
      }

      .cls-16 {
        fill: url(#radial-gradient-5);
      }

      .cls-17 {
        fill: url(#radial-gradient-6);
      }

      .cls-18 {
        fill: url(#radial-gradient-7);
      }

      .cls-19 {
        fill: url(#radial-gradient-8);
      }

      .cls-20 {
        fill: url(#radial-gradient-9);
      }

      .cls-21 {
        fill: url(#radial-gradient-10);
      }

      .cls-22 {
        fill: url(#radial-gradient-11);
      }

      .cls-23 {
        fill: url(#radial-gradient-12);
      }
    </style>
    <linearGradient id="linear-gradient" x1="959.52" y1="1062.2" x2="960.48" y2="11.42" gradientUnits="userSpaceOnUse">
      <stop offset="0.54" stop-color="#fff"/>
      <stop offset="0.7" stop-color="#fdfcfd"/>
      <stop offset="0.81" stop-color="#f8f3f7"/>
      <stop offset="0.9" stop-color="#efe3ec"/>
      <stop offset="0.92" stop-color="#eddfe9"/>
    </linearGradient>
    <linearGradient id="linear-gradient-2" x1="1335.88" y1="596.88" x2="1035.09" y2="253.46" gradientUnits="userSpaceOnUse">
      <stop offset="0.21" stop-color="#fff"/>
      <stop offset="0.44" stop-color="#faefee"/>
      <stop offset="0.7" stop-color="#f6e4e3"/>
      <stop offset="1" stop-color="#f5e1e0"/>
    </linearGradient>
    <linearGradient id="linear-gradient-3" x1="873.1" y1="841.81" x2="509.15" y2="224.28" gradientUnits="userSpaceOnUse">
      <stop offset="0.14" stop-color="#fff"/>
      <stop offset="0.36" stop-color="#faf0f0"/>
      <stop offset="0.64" stop-color="#f6e5e4"/>
      <stop offset="0.92" stop-color="#f5e1e0"/>
    </linearGradient>
    <linearGradient id="linear-gradient-4" x1="1495.64" y1="640.5" x2="1446.83" y2="32.78" gradientUnits="userSpaceOnUse">
      <stop offset="0" stop-color="#d1def3"/>
      <stop offset="0.47" stop-color="#abc7f2"/>
      <stop offset="0.78" stop-color="#90b6f1"/>
    </linearGradient>
    <radialGradient id="radial-gradient" cx="1211.22" cy="883.48" r="37.01" gradientTransform="matrix(0.88, 0.2, -0.31, 1.41, 341.81, -477.07)" gradientUnits="userSpaceOnUse">
      <stop offset="0.16" stop-color="#f6fafe"/>
      <stop offset="0.49" stop-color="#eef5fd"/>
      <stop offset="0.92" stop-color="#e9f3fd"/>
    </radialGradient>
    <radialGradient id="radial-gradient-2" cx="364.96" cy="259" r="40.14" gradientTransform="matrix(-0.69, -0.13, 0.12, -0.63, 1214.55, 1165.8)" gradientUnits="userSpaceOnUse">
      <stop offset="0.16" stop-color="#fff"/>
      <stop offset="0.24" stop-color="#fbfdff"/>
      <stop offset="0.6" stop-color="#eef6fd"/>
      <stop offset="0.92" stop-color="#e9f3fd"/>
    </radialGradient>
    <radialGradient id="radial-gradient-3" cx="1439.8" cy="738.39" r="34.74" gradientTransform="matrix(0.92, 0.2, -0.31, 1.31, 286.03, -399.9)" xlink:href="#radial-gradient"/>
    <radialGradient id="radial-gradient-4" cx="1864.51" cy="711.62" r="35.65" gradientTransform="matrix(0.85, 0.19, -0.27, 1.19, 359.14, -301.2)" xlink:href="#radial-gradient"/>
    <radialGradient id="radial-gradient-5" cx="767.31" cy="908.96" r="36.46" gradientTransform="matrix(0.87, 0.19, -0.31, 1.37, 344.42, -440.5)" xlink:href="#radial-gradient"/>
    <radialGradient id="radial-gradient-6" cx="932.7" cy="224.9" r="39.55" gradientTransform="matrix(-0.68, -0.12, 0.11, -0.62, 1204.66, 1161.37)" xlink:href="#radial-gradient-2"/>
    <radialGradient id="radial-gradient-7" cx="17.63" cy="573.3" r="42.12" gradientTransform="matrix(-0.7, -0.12, 0.12, -0.62, 1207.08, 1158.21)" xlink:href="#radial-gradient-2"/>
    <radialGradient id="radial-gradient-8" cx="-502.54" cy="616.5" r="43.74" gradientTransform="matrix(-0.68, -0.12, 0.11, -0.61, 1224.17, 1156.38)" xlink:href="#radial-gradient-2"/>
    <radialGradient id="radial-gradient-9" cx="1649.02" cy="824.28" r="38.22" xlink:href="#radial-gradient"/>
    <radialGradient id="radial-gradient-10" cx="-193.94" cy="369.76" r="41.46" xlink:href="#radial-gradient-2"/>
    <radialGradient id="radial-gradient-11" cx="1038.5" cy="800.92" r="35.51" gradientTransform="matrix(0.87, 0.18, -0.26, 1.1, 314.05, -211.79)" xlink:href="#radial-gradient"/>
    <radialGradient id="radial-gradient-12" cx="549.49" cy="463.24" r="43.05" gradientTransform="matrix(-0.68, -0.12, 0.11, -0.58, 1214.59, 1142.81)" xlink:href="#radial-gradient-2"/>
  </defs>
  <g id="sky">
    <rect class="cls-1" width="1920" height="1079"/>
  </g>
  <g id="srodek">
    <path class="cls-2" d="M1537,638c2-15.7-22-39.93-25-43-10.81-10.91-21.88-16.79-43-28-33.11-17.58-38-14.22-46-25-9.38-12.57-8.9-25.31-22-33-4.89-2.87-20-10.66-15-8-7.24-5.24-18.24-13-32-22-31-20.22-31.24-17.39-41-26-23-20.32-23.24-37.59-42-42-8.35-2-8.56,1.4-20,0-5.7-.7-19.82-3.27-45-24-22.59-18.6-17.55-21.73-37-36-9.22-6.76-8.14-4.44-37-23-12.57-8.09-15.62-10.36-23-14-14.53-7.18-17.25-5.55-29-12-9.22-5.07-18.27-10-25-20-8.25-12.2-4.34-19.05-13-26-6.55-5.26-10.06-2.36-20-9-9.46-6.33-9.27-10.95-15-12-9.74-1.78-19.54,9.89-23,14-7,8.34-6.54,12.59-14,27-8.47,16.37-10.59,13.81-17,27-8.71,17.93-5.54,24.19-14,36-2,2.78-6,7.72-20,17-21.17,14-42,27.74-70,30-16.22,1.31-18.8-2.52-39,0-10.66,1.33-21.91,2.74-33,8-27.07,12.85-21.89,33.86-50,53-17.66,12-20.81,4.48-42,19-5.06,3.47-8.2,5.78-38,34-14.8,1.1-33,4.23-36,14-5.4,13.49,33.13,42.84,63,61,45,27.37,65.58,26.39,106,52a296,296,0,0,1,55,45c15.52,20.39,42.54,49.29,83,61,55.25,16,106.64-8.46,126-17C1242.49,628.45,1530.24,689.81,1537,638Z"/>
    <path class="cls-3" d="M1234,690c62.29,97.24,312.54-16,309-52.47-.4-4.14-6.94-24.51-24.08-42.06l-.92-.94c-10.81-10.91-21.88-16.79-43-28-33.11-17.58-38-14.22-46-25-9.38-12.57-8.9-25.31-22-33-4.89-2.87-20-10.66-15-8-7.24-5.24-18.24-13-32-22-31-20.22-31.24-17.39-41-26-23-20.32-23.24-37.59-42-42-8.35-2-8.56,1.4-20,0-5.7-.7-19.82-3.27-45-24-22.59-18.6-17.55-21.73-37-36-9.22-6.76-8.14-4.44-37-23-12.57-8.09-15.62-10.36-23-14-14.53-7.18-17.25-5.55-29-12-9.22-5.07-18.27-10-25-20-8.25-12.2-4.34-19-13-26-4.82-3.87-8-3.32-13.29-5.4a56.66,56.66,0,0,1-6.71-3.6c-10.59-6.42-13.13-12.72-15-12-3.41,1.32,16.35,20,22,53.47,2.58,15.4,8,17.88,10,26,5,20.43,14.21,18.38,20,36,7.33,22.33,2.14,11,10,38,3.65,12.55,24.67,13.1,32,35,4.16,12.43,35,44,38,58,4.15,19.55-2.26,7.93,0,24,3.37,23.89,21.72,50.81,28,66C1200.26,636.88,1220.12,668.33,1234,690Z"/>
  </g>
  <g id="lewa2">
    <path class="cls-4" d="M334,164c-3.06,5.36,8,43.88,25,55,20.3,13.28,49.92,22.65,64,37,2.31,2.36,4.49,4.89,4.49,4.89A103.56,103.56,0,0,1,442,283c9.57,19.45,27,63.47,39,89,20,42.48,27.51,39.09,36,69,6.48,22.84,4,31.73,14,48,13.11,21.44,24.11,17.08,41,39,16.5,21.41,8.62,29,28,60a212.12,212.12,0,0,0,32,39c16.7,16.11,27.27,21,39,30,37,28.25,26.78,51.61,53,75,34.4,30.68,63.64.89,181,21,24,4.1,38.23,8,45,0,13.66-16.15-11.11-71.49-52-103-26.59-20.49-39.11-14.8-83-44-28.38-18.88-24.5-22.16-50-39-49.51-32.7-64.72-20.73-101-48-7.06-5.31-6-5.42-62-73-36.47-44-37.71-45-53-64-27.79-34.62-28.66-37.77-57-74-63.82-81.61-90.45-110.51-120-123C354.9,177.77,337.27,158.25,334,164Z"/>
  </g>
  <g id="lewa">
    <path class="cls-2" d="M74,519c6-9.87-90.13-49.66-75-85,8-18.71,40.05-10.74,51-33,10.49-21.34,30.77-31.1,43-45,17.77-20.19,45.1-29.5,63-49,13.62-14.83,36.78-14.4,73-42,21-16,17-33,43-47,12.39-6.67,15.18-19.37,27-27,10.85-7,35-28,35-28,16.8,1.39,23,29.82,47,50,22.85,19.19,22.5,22.61,42,42,9.6,9.54,12.4,17,24,40,8.42,16.68,21.05,25.81,25,42,5.77,23.64,8.83,29.79,14,45,7.05,20.74,17.73,24.38,37,44,25.36,25.82,18.51,40.65,51,92,9.59,15.16,30.14,29.34,52,53,6.65,7.2,7.53,29.9,49,69,14.1,13.3,17.61,33.61,34,50,13,13,41.84,15,40,27-9,58.73-592.85,178.54-679-1C46.58,667.2,43.77,568.45,74,519Z"/>
  </g>
  <g id="prawa2">
    <path class="cls-5" d="M1562.44,210.37c2.85-1.81,8.34,14.88,20.11,28.22,10.47,11.88,13,6.42,25.38,18.38,13.34,12.84,11.75,20.38,25.35,33.5,11.28,10.89,13.22,6.53,24.49,17.3,9.08,8.69,14.45,17.88,24.81,35.9,16.89,29.37,15.43,35.3,23.84,41.81,12,9.26,17.68-.68,32.2,8.36,2.29,1.43,8.34,5.53,23.33,29.06,19.16,30.06,19.5,39.38,32.59,58.38,19.35,28.11,24.22,15.87,34.23,36.1,13.76,27.8,5.87,53.58,24.46,94.13,2.67,5.82,5.15,10.35,6.83,13.27L1719.8,648.35c3-34.53-2.06-57.66-7.37-72.59-1.75-4.9-1-1.87-20.74-42.12-11.86-24.21-17.8-36.31-22.88-47.73-9.35-21-8.83-22.08-13.13-28.93-11.67-18.61-17.56-14-27.32-29.82-10.53-17-5.6-25.48-17.22-46C1601,363.27,1595.57,366.83,1591,353c-5.83-17.83,2-27.08-4.68-46.09-3.88-11-7.19-9.84-12.66-24.32-2.18-5.77-.91-4.08-6.92-29.56-2-8.24-4.64-19.27-5.22-33.81C1561.28,212.46,1561.7,210.84,1562.44,210.37Z"/>
    <path class="cls-2" d="M1570.5,210.06c2.74-2.54,12.35,12.17,28.13,21.93,14,8.68,15.61,2.7,31.8,10.92,17.4,8.83,17.27,16.59,35,25.63,14.72,7.5,15.92,2.73,30.59,10.12,11.83,6,19.69,13.42,34.93,28.1,24.84,23.92,24.51,30.08,35.14,34.1,15.15,5.73,19.26-5.48,37.14-.66,2.81.76,10.33,3.09,31.84,21.86,27.47,24,29.85,32.94,48.29,47.82,27.26,22,30,8.8,45.32,25.73,21,23.25,17.93,50.44,47,84.76a147.56,147.56,0,0,0,10.35,11l-148.91,61.17c-4.16-34.35-14.62-55.45-23.66-68.5-3-4.28-1.51-1.54-31.8-35.26-18.21-20.28-27.32-30.42-35.34-40.12-14.78-17.86-14.44-19-20.62-24.52-16.8-14.89-22.28-8.81-36.39-21.5-15.21-13.68-11.6-23.23-28.75-40-15-14.63-20.18-9.69-28.13-21.92-10.23-15.73-3.59-26.85-15-43.49-6.62-9.64-10-7.6-19.12-20.17-3.62-5-1.87-3.72-13.93-26.83-3.9-7.47-9.23-17.46-13-31.42C1569.68,212.41,1569.79,210.72,1570.5,210.06Z"/>
  </g>
  <g id="prawa">
    <path class="cls-6" d="M1567.37,210.17c-5.13-.42-7.85,19-24,35-3.44,3.41-5.95,5.72-10,8-6,3.35-11.1,3.87-17.78,7.28a49.17,49.17,0,0,0-4.64,2.71,62.88,62.88,0,0,0-6.56,5c-6.63,5.89-24.93,33.46-29,38a182.87,182.87,0,0,1-29,26c-21.91,16.18-28.3,13.83-55,30a264,264,0,0,0-46,35c-11.21,10.88-9.33,11.29-34,40-19.06,22.19-28.84,33.5-41,44-14.75,12.75-16.36,11.06-36,27a369.58,369.58,0,0,0-39,36c-24.08,25.9-22,32.27-45,54-10.23,9.67-13.89,11.48-22,21-12.14,14.25-13.41,21.3-24,37-18.51,27.45-32.12,31.8-30,38,3.85,11.24,50.81,3.72,102-2,45.51-5.09,91.34-6.66,137-10,59.49-4.35,54.44-1.2,218-5,49.39-1.15,98.28-2.31,163-5,89.82-3.73,218.82,4.2,225.63-12.17,7.32-17.6-2.53-26-60-100-4.56-5.87-93.33-27.49-112-49-11.18-12.87-39.06-27.29-50-42-6.73-9.05-36.24-14.8-42-28-6.6-15.13-4.54-18.5-11-29-8.11-13.17-14.94-13.7-22-24-8.24-12-2-16.92-8-41-1.81-7.29-5.79-22.79-16-39-11.82-18.77-17.52-15.48-22-28-5.28-14.77,1.84-21.59-2-48C1574.1,225.8,1571.88,210.53,1567.37,210.17Z"/>
  </g>
  <g id="przod">
    <path class="cls-7" d="M814.84,742.58c-8.9-15.87-23.08-20.38-56.39-28.48-65.29-15.86-69-12.66-95.68-21.27-37-11.92-65.35-29.44-83.47-40.78-26.36-16.5-25.27-19.6-54.1-37.61-26.13-16.33-46.79-26.14-75.25-39.56-10.75-5.06-40.36-19-71-30.64-55.17-21-101.6-30.15-168.94-42.78C98.75,480.6,76,485.33,41.75,454.05,23.39,437.29,18,425.07-6.58,409c-37.85-24.72-48.15-10.83-98-37-27.1-14.22-54.88-34.5-70.58-46-10.4-7.6-19-14.25-25.14-19.12l-51.3,346.37C594.8,848.15,806.76,851.86,819.08,808.32,820.15,804.57,829,767.8,814.84,742.58Z"/>
    <path class="cls-8" d="M765,761c12.06-12.29,28-14.33,65-17,72.54-5.23,76-2.07,106-6,41.56-5.44,74.77-16.69,96-24,30.9-10.64,30.23-13.39,64-25,30.62-10.52,54.34-16.23,87-24,12.33-2.93,46.3-11,81-17,62.51-10.87,113.77-12.76,188-15,122.66-3.7,146.26,3.14,188-19,22.36-11.86,30.07-21.51,59-32,44.53-16.15,53.36-3.13,111-19,31.32-8.63,64.34-22.28,83-30,12.36-5.11,22.63-9.66,30-13V819c-938.78,58.71-1166.7,35.32-1173-3C749.46,812.7,745.83,780.54,765,761Z"/>
    <path class="cls-8" d="M1010.06,793c-10.32-15-24.86-18.16-58.77-23.15-66.48-9.76-69.83-6.23-97.24-12.34-37.93-8.44-67.79-23.27-86.88-32.88-27.77-14-27-17.18-57.34-32.45-27.53-13.85-49-21.71-78.59-32.44-11.17-4.05-41.94-15.15-73.51-24-56.88-15.84-104-20.63-172.18-27-112.72-10.49-134.9-3.68-171.92-31.67-19.84-15-26.33-26.65-52.3-40.38-40-21.12-48.94-6.34-101-27.79C32,497.3,2.49,479.67-14.2,469.71-25.26,463.11-34.43,457.28-41,453L-60.08,802.62c860.81,115.82,1072.2,99.93,1080.45,55.43C1021.08,854.22,1026.47,816.8,1010.06,793Z"/>
  </g>
  <g id="ground_front" data-name="ground front">
    <path class="cls-9" d="M1,643c29.6,1.78,54.8-3,75.5-3.52,10.48-.27,39.13-1.2,77-5.29,33-3.56,37-5.65,61-7.93,35.41-3.37,62.4-2.22,82-1.32,72.48,3.35,90.79,15.14,189,27.75,31.78,4.08,50,5.44,109,13.22,46.3,6.1,71.44,10.07,100,23.78,2.72,1.31,7.14,3.51,43,21.14a111.11,111.11,0,0,0,37,14.54,90.72,90.72,0,0,0,29,1.32c10.27-1.25,11.7-3.31,25-5.29,7.59-1.13,15.92-2.37,26-1.32,12.24,1.28,15.77,4.76,28,7.93,11.44,3,19.43,2.8,34,2.64,75.44-.79,76.39,1.59,93-2.64,12.21-3.11,12.56-4.61,42-13.21,25.32-7.4,33.31-8.69,41-9.25,19.54-1.42,19.21,3.21,35,1.32,11.23-1.34,16.41-4.28,47-17.18,13.86-5.84,25.08-10.42,32-13.21a228.51,228.51,0,0,1,48-10.57c34.7-3.76,59.76,1.87,132,23.78,102.47,31.07,134.44,44.73,166,41a161.82,161.82,0,0,1,43,0,168.5,168.5,0,0,1,40,10.58,88.6,88.6,0,0,0,30,11.89,80.25,80.25,0,0,0,19,1.32,268.19,268.19,0,0,0,81-21.14c26.65-11.67,41-23,93-54.18l57-33h0l5-9.25q-.49,221.32-1,442.66H.5C.5,932.39,1,790.11,1,643Z"/>
  </g>
  <g id="iceholes">
    <g>
      <ellipse class="cls-10" cx="1694" cy="861.07" rx="131" ry="57.07"/>
      <ellipse class="cls-11" cx="1694" cy="870.94" rx="130.07" ry="50.06"/>
    </g>
    <g>
      <ellipse class="cls-10" cx="1322.5" cy="821.61" rx="131.5" ry="55.61"/>
      <ellipse class="cls-11" cx="1322.5" cy="831.23" rx="130.57" ry="48.77"/>
    </g>
    <g>
      <ellipse class="cls-10" cx="1060.3" cy="977.51" rx="141.7" ry="59.51"/>
      <ellipse class="cls-11" cx="1060.3" cy="987.8" rx="140.7" ry="52.2"/>
    </g>
    <path class="cls-12" d="M1079.57,1022.49c-.66,5.64,42.74-.11,62.42-7.27a85.86,85.86,0,0,0,20.93-11.36c7.36-5.49,9.41-10.66,11.1-14.05s2.65-4.95,2.43-5.9c-1-4.41-17.33,11.17-34.85,19.69C1103.78,1022,1080,1018.69,1079.57,1022.49Z"/>
    <path class="cls-13" d="M1030.52,946.88c0-2.56-31.31-.54-43.89,3.34a160.88,160.88,0,0,0-15.8,5.75c-5.15,2.2-13.24,5.71-14.23,7.19s-2.07,1.89-1.82,2.33c1.14,2.06,12.4-5.33,25.07-8.49C1007.19,950.17,1030.52,948.6,1030.52,946.88Z"/>
    <path class="cls-14" d="M1336.7,864.93c-.55,4.93,41.84.52,61-5.47a84.76,84.76,0,0,0,20.32-9.65c7.13-4.71,9-9.2,10.65-12.15s2.52-4.3,2.3-5.14c-1-3.87-16.81,9.55-33.82,16.76C1360.4,864.85,1337.08,861.61,1336.7,864.93Z"/>
    <path class="cls-15" d="M1711.31,909c-.49,4.61,39.82.82,58-4.64a79.75,79.75,0,0,0,19.27-8.88,25.83,25.83,0,0,0,10-11.29c1.5-2.75,2.37-4,2.15-4.79-1-3.64-15.92,8.8-32.07,15.42C1733.86,909.14,1711.64,905.92,1711.31,909Z"/>
    <g>
      <ellipse class="cls-10" cx="661.39" cy="928.17" rx="137.61" ry="57.17"/>
      <ellipse class="cls-11" cx="661.39" cy="938.06" rx="136.64" ry="50.14"/>
    </g>
    <path class="cls-16" d="M680.1,971.38c-.64,5.41,41.51-.11,60.62-7a83.33,83.33,0,0,0,20.33-10.91c7.15-5.27,9.13-10.24,10.77-13.49s2.58-4.76,2.37-5.68c-1-4.23-16.84,10.74-33.85,18.93C703.62,970.91,680.53,967.73,680.1,971.38Z"/>
    <path class="cls-17" d="M632.47,898.74c0-2.45-30.4-.51-42.63,3.21a161.83,161.83,0,0,0-15.34,5.52c-5,2.12-12.86,5.49-13.82,6.91s-2,1.82-1.77,2.24c1.11,2,12.05-5.12,24.35-8.16C609.82,901.9,632.47,900.4,632.47,898.74Z"/>
    <path class="cls-18" d="M1303,793.68c0-2.62-33.48-.55-46.94,3.42-2.21.65-9.26,2.76-16.89,5.88-5.51,2.26-14.16,5.85-15.23,7.37s-2.2,1.93-1.94,2.39c1.22,2.1,13.27-5.47,26.81-8.7C1278,797.05,1303,795.44,1303,793.68Z"/>
    <path class="cls-19" d="M1677,834.37c0-2.67-33.6-.56-47.11,3.5a179.66,179.66,0,0,0-17,6c-5.53,2.3-14.21,6-15.28,7.53s-2.22,2-2,2.44c1.23,2.15,13.31-5.59,26.91-8.9C1652,837.82,1677,836.17,1677,834.37Z"/>
    <g>
      <ellipse class="cls-10" cx="1461.22" cy="979.28" rx="146.34" ry="61.46"/>
      <ellipse class="cls-11" cx="1461.22" cy="989.91" rx="145.31" ry="53.91"/>
    </g>
    <path class="cls-20" d="M1481.12,1025.73c-.68,5.83,44.14-.11,64.46-7.51a88.11,88.11,0,0,0,21.63-11.72c7.6-5.67,9.71-11,11.45-14.51s2.74-5.12,2.52-6.1c-1-4.55-17.9,11.54-36,20.34C1506.13,1025.23,1481.57,1021.81,1481.12,1025.73Z"/>
    <path class="cls-21" d="M1430.47,947.65c0-2.64-32.34-.56-45.34,3.44a171.41,171.41,0,0,0-16.31,5.94c-5.33,2.28-13.68,5.9-14.71,7.43s-2.13,1.95-1.87,2.41c1.18,2.13,12.81-5.51,25.89-8.78C1406.37,951.05,1430.47,949.42,1430.47,947.65Z"/>
    <g>
      <ellipse class="cls-10" cx="952.32" cy="827" rx="130.32" ry="53.69"/>
      <ellipse class="cls-11" cx="952.32" cy="836.29" rx="129.4" ry="47.09"/>
    </g>
    <path class="cls-22" d="M963.25,868.94c-.44,4.23,40.45,1.26,58.84-3.53a83,83,0,0,0,19.46-7.91,23.76,23.76,0,0,0,10.06-10.25c1.49-2.5,2.35-3.66,2.12-4.38-1.06-3.35-16.06,7.89-32.37,13.77C986.15,869.33,963.55,866.08,963.25,868.94Z"/>
    <path class="cls-23" d="M933,800c0-2.52-33.18-.53-46.52,3.3-2.2.63-9.18,2.67-16.74,5.69-5.47,2.17-14,5.64-15.09,7.11s-2.19,1.86-1.93,2.3c1.21,2,13.15-5.27,26.57-8.4C908.25,803.29,933,801.73,933,800Z"/>
  </g>
</svg>
