<svg xmlns="http://www.w3.org/2000/svg" xmlns:xlink="http://www.w3.org/1999/xlink" width="450" height="450" viewBox="0 0 450 450">
  <defs>
    <style>
      .cls-1 {
        fill: url(#radial-gradient);
      }

      .cls-2 {
        fill: #fff;
      }

      .cls-3 {
        fill: url(#linear-gradient);
      }

      .cls-4 {
        fill: #ececec;
      }

      .cls-5 {
        fill: url(#linear-gradient-2);
      }

      .cls-6 {
        fill: #1d1d1b;
      }

      .cls-7 {
        opacity: 0.67;
      }

      .cls-8 {
        fill: #d9d9d9;
      }
    </style>
    <radialGradient id="radial-gradient" cx="1373.07" cy="674.6" fx="1360.4240399365426" r="43" gradientTransform="translate(-6814.68 -351.49) scale(5.13 1.08)" gradientUnits="userSpaceOnUse">
      <stop offset="0" stop-color="#999" stop-opacity="0.4"/>
      <stop offset="0.08" stop-color="#888" stop-opacity="0.35"/>
      <stop offset="0.45" stop-color="#3e3e3e" stop-opacity="0.16"/>
      <stop offset="0.77" stop-color="#101010" stop-opacity="0.04"/>
      <stop offset="1" stop-opacity="0"/>
    </radialGradient>
    <linearGradient id="linear-gradient" x1="280.15" y1="269.99" x2="327.52" y2="269.99" gradientTransform="translate(-13.03 12.13) rotate(-0.84)" gradientUnits="userSpaceOnUse">
      <stop offset="0" stop-color="#fff"/>
      <stop offset="0.64" stop-color="#fbfbfb"/>
      <stop offset="1" stop-color="#f5f5f5"/>
    </linearGradient>
    <linearGradient id="linear-gradient-2" x1="149.11" y1="264.52" x2="205.49" y2="264.52" gradientTransform="translate(-13.03 12.13) rotate(-0.84)" gradientUnits="userSpaceOnUse">
      <stop offset="0" stop-color="#fff"/>
      <stop offset="0.71" stop-color="#fdfdfd"/>
      <stop offset="0.93" stop-color="#f9f9f9"/>
    </linearGradient>
  </defs>
  <g id="mis">
    <g id="shadow">
      <ellipse class="cls-1" cx="230" cy="374" rx="212" ry="59" transform="translate(-21.26 13.94) rotate(-3.32)"/>
    </g>
    <g id="body">
      <path class="cls-2" d="M178.71,137.08c-.14.47-1.59,6-4.11,13a22.6,22.6,0,0,1-3.66,7.05,23.5,23.5,0,0,1-5.85,4.93c-6,4.12-9.81,8.58-13.26,12.56A75,75,0,0,0,137.67,199c-4.26,11.68-5.67,19.66-10.19,38.88-3.57,15.17-3.4,13.21-5.07,21.05-1.38,6.5-2.74,14.94-5.45,31.81s-3.24,21.16-2.85,25.86c.09,1,.53,5.81.72,12.36.07,2.54-.14.55-2,.11-4-1-4.36-.72-7.17,0-3.65,1-4.6,6.93-5.22,10.83-1.51,9.49,1.12,17.2,3.58,24.15,3.34,9.42,5.17,14.6,10.49,18.67,4.77,3.64,9.6,4.31,15.68,5.15,8.9,1.23,16.62,0,31.69-2.62,9.38-1.6,11-2.32,19.85-3.51,7.81-1.06,8.66-.79,14.5-1.83,11.49-2,11.15-3.62,18.23-4,5.7-.34,6.79.64,16.14.3,2.31-.09,5.33-.2,9.13-.67,7.29-.9,10.94-2.3,16.08-3.47,3.18-.71,8.39-1.1,18.8-1.88,5.56-.42,16.35-1.15,30.1-1.52,7.28-.2,12.11-.2,13.44-.2,8.6,0,14.82.26,16.14.3,7.2.24,20.86-.57,49.4-5.56a40.84,40.84,0,0,0,14.59,4.09c5,.42,9.57.8,13.95-1.82,4.64-2.78,6.54-7.38,8.43-12,1.4-3.37,2-6.14,3.05-12.41,2.22-13.52,3.33-20.28,2.33-24.78-.55-2.43-2-4.77-8-8.42-4-2.45-10.6-.91-11.61-.24a16.44,16.44,0,0,0-6.75,8c-1.45,3.29-2.45,6.1-3.11,8.12A104.06,104.06,0,0,0,370,308a105.64,105.64,0,0,0-46.91-7.38,193.75,193.75,0,0,0-29.7-118.43,65.29,65.29,0,0,1-11.24-32.65,61,61,0,0,1,.38-10.76C200.58,129,180.24,131.88,178.71,137.08Z"/>
    </g>
    <g id="r_arm">
      <g>
        <path id="right_arm" class="cls-3" d="M291.73,180.66a336.66,336.66,0,0,1,18.86,34.83c3.14,6.77,5.34,12.16,6.57,19.3.78,4.57.82,7.83.79,18.33,0,15.47-.06,23.2-.16,24.63-.9,13.33-2.81,12.71-6.31,34.69-2.32,14.6-3.48,21.9-3.76,28.88-.27,6.51-1.6,12.94-2.34,19.42-.61,5.32-1,9.07-4,11.59-3.26,2.73-7.61,2.38-8.88,2.23-5-.62-8.08-4-9.52-5.63-5.46-6.13-6.06-13.86-6.61-22.44-1.35-21.09-1.5-30.37-1.5-30.37-.25-16.66-2.87-26.27-3.55-38.14-1.11-19.51.32-18.4.49-27.85A141.42,141.42,0,0,1,278,211.78,144.93,144.93,0,0,1,291.73,180.66Z"/>
        <path class="cls-4" d="M274.7,283.76a1.77,1.77,0,0,0-.68-1.14,1.72,1.72,0,0,0-2,.17,1.7,1.7,0,0,0-.47.79c-.12,2.85-.18,5.1-.2,6.65s0,2.67,0,3.63c0,1.64,0,2.23,0,2.56,0,1,.08,1.32.15,2.56s.08,1.95.11,2.63c.08,2.11.23,4.49.55,9.24.1,1.52.17,2.67.22,3.36.23,3.38.34,4.79.6,8.45.06.89.15,2.23.27,3.87.68,7.43,1,11.77,1.2,14.49.05.72.17,2.56.47,5,.33,2.75.7,4.74.79,5.21a44.56,44.56,0,0,0,1.6,6.56A37.37,37.37,0,0,0,279,362a29.11,29.11,0,0,0,3.81,6.4,18.53,18.53,0,0,0,3.44,3.47,12.29,12.29,0,0,0,5.26,2.6,24.43,24.43,0,0,0,4.23.36,7.55,7.55,0,0,0,4.68-1.6c1.07-.82,2.15-1.78,2.13-2.12,0-.62-.91-.24-2.48.48-.3-.21-2.29.24-4.29-.05-.76-.11-1.77,0-3.28-.28a8.82,8.82,0,0,1-3.34-1.39c-2.35-1.52-3.61-3.42-5.11-5.73a35.47,35.47,0,0,1-3.29-6.41,37.18,37.18,0,0,1-1.86-6.95c-.44-2.28-.65-4.18-1-7.61-.21-2-.34-3.46-.38-3.85-.75-8.52-1.69-24.54-2.2-32.92-.23-4-.43-7.22-.57-11.84-.11-3.81-.13-6.95-.13-9.06A2.77,2.77,0,0,0,274.7,283.76Z"/>
      </g>
    </g>
    <g id="l_arm-2" data-name="l_arm">
      <g>
        <path class="cls-5" d="M158.9,167.36a41,41,0,0,0-7.5,9.14c-2.76,4.29-4.53,5.94-6.86,9.24-3.7,5.26-5.36,9.83-7.31,15.17-2.64,7.28-5.32,14.64-5,24.09.11,3.26.47,3.55,3.52,17.86,3,14,2.45,12.79,4.1,20,2.51,11,3.18,11.22,8,29.74,2.47,9.39,3.7,14.08,5.19,20.55,2,8.8,2.56,12.16,4.62,18.93a89.89,89.89,0,0,0,5.65,15.12,72,72,0,0,0,9.44,14.52,116.32,116.32,0,0,0,8.82,8.56c7.73,7.14,11.66,10.73,14.24,11.53,5,1.56,12.8,1.3,18.23-4,7.34-7.2,4.45-17.8,4.28-18.36a19.87,19.87,0,0,0-7.2-10.2,28.71,28.71,0,0,1-12.6-7.42,30,30,0,0,1-6.11-9.68c-3.41-7.94-4.12-14.4-5.25-24.36-2.95-26-3-24.83-3.12-28.18-.32-8.53,0-14.68.71-25.53,1.16-19.26,1.17-17.89.81-27.12-.26-6.59-.27-10.45-1.54-22.81-.92-9-.85-11.54-1.89-17.89-1.75-10.61-2.63-15.92-6.25-18.91C169.76,162.3,162,166.36,158.9,167.36Z"/>
        <path class="cls-4" d="M150.65,292.74c-.11-.36-1-2.75-2.05-2.51a1.67,1.67,0,0,0-1.38,1.08,6.55,6.55,0,0,0,0,1.58,15.38,15.38,0,0,0,.53,3.59c3.38,12.19,6.18,22.17,8.12,29.1.41,1.46,1.18,4.2,2.34,7.81.43,1.34,1.12,3.48,2,5.9A99.92,99.92,0,0,0,166.64,354c.8,1.46,2.19,3.91,4.13,6.83a63.47,63.47,0,0,0,5.62,7.54,53.26,53.26,0,0,0,8.8,7.93,32.73,32.73,0,0,0,8.76,4.95,23.84,23.84,0,0,0,6.48,1.39,33.94,33.94,0,0,0,5.5-.4,7.48,7.48,0,0,0,3.69-1.32,1.7,1.7,0,0,0,.73-1,1.82,1.82,0,0,0-.67-2,1.64,1.64,0,0,0-2,.35,15.49,15.49,0,0,1-5.07,1.24,16.91,16.91,0,0,1-6.48-1,32.24,32.24,0,0,1-10.68-6.3,58.53,58.53,0,0,1-7.85-7.73c-2.85-3.37-4.45-6-7.47-11a52.42,52.42,0,0,1-4.14-8.1c-.5-1.25-.87-2.31-1.11-3.05q-4.59-14.38-9-29.42C153.77,305.8,152.58,299.75,150.65,292.74Z"/>
      </g>
    </g>
    <g id="paw">
      <ellipse class="cls-6" cx="409.45" cy="341.46" rx="16.36" ry="9.41" transform="translate(0.83 683.91) rotate(-79.79)"/>
      <circle class="cls-6" cx="406.84" cy="318.13" r="2.27"/>
      <circle class="cls-6" cx="414.21" cy="315.14" r="2.27"/>
      <circle class="cls-6" cx="420.41" cy="319.26" r="2.27"/>
    </g>
    <g id="r_ear">
      <ellipse class="cls-2" cx="302.44" cy="42.58" rx="16.01" ry="11.84" transform="translate(39.74 198.37) rotate(-38.68)"/>
      <ellipse class="cls-6" cx="302.98" cy="44.37" rx="10.23" ry="6.91" transform="matrix(0.75, -0.66, 0.66, 0.75, 46.18, 211.16)"/>
    </g>
    <g id="l_ear">
      <ellipse class="cls-2" cx="179.27" cy="37.35" rx="11.84" ry="16.01" transform="translate(110.74 207.16) rotate(-79.79)"/>
      <ellipse class="cls-6" cx="175.87" cy="40.77" rx="6.37" ry="9.65" transform="translate(54.57 174.49) rotate(-60.84)"/>
    </g>
    <g id="glowa">
      <path class="cls-2" d="M192.54,153s-22.55-7.27-24.65-45.79c.06-7,1.14-20.16,1.14-20.16s1.79-14.25,3-19.75,2.07-9.1,2.07-9.1l1.46-6.83a21.31,21.31,0,0,1,3.62-7,17.11,17.11,0,0,1,6.32-4.84s1.75-1.87,7.51-4.61,26.37-7.28,50.24-6,38,3.86,48.69,7.74,16.51,29.45,16.51,29.45.31,11.35-.49,26.4-12.82,59-30.61,61.12C217.64,160.87,192.54,153,192.54,153Z"/>
    </g>
    <g id="face-2" data-name="face">
      <g class="cls-7">
        <path class="cls-8" d="M192.35,119.52a31,31,0,0,0,8,21.27,32.2,32.2,0,0,0,19.43,10.12,1.94,1.94,0,0,0,2.31-1.31,1.9,1.9,0,0,0-1.31-2.31,29.13,29.13,0,0,1-17.52-8.86,27.12,27.12,0,0,1-7.12-18.91c.05-2.41-3.7-2.41-3.75,0Z"/>
      </g>
      <path class="cls-6" d="M234.79,127.71a14.71,14.71,0,0,0,15.5,3.7c.75-.27.43-1.48-.33-1.2a13.49,13.49,0,0,1-14.29-3.39c-.55-.58-1.43.3-.88.89Z"/>
      <ellipse class="cls-6" cx="276.04" cy="77.6" rx="7.04" ry="4.73" transform="translate(169.78 343.92) rotate(-83.95)"/>
      <ellipse class="cls-6" cx="222.51" cy="78.38" rx="7.04" ry="4.73" transform="translate(121.11 291.39) rotate(-83.95)"/>
      <ellipse class="cls-6" cx="249.05" cy="110.84" rx="11.46" ry="6.75" transform="translate(-1.6 3.66) rotate(-0.84)"/>
    </g>
  </g>
</svg>
