<svg xmlns="http://www.w3.org/2000/svg" width="450" height="450" viewBox="0 0 450 450">
  <defs>
    <style>
      .cls-1 {
        fill: #fff;
      }

      .cls-2 {
        fill: #1d1d1b;
      }

      .cls-3 {
        opacity: 0.67;
      }

      .cls-4 {
        fill: #d9d9d9;
      }

      .cls-5, .cls-6 {
        fill: #bbe2ff;
      }

      .cls-6 {
        opacity: 0.56;
      }
    </style>
  </defs>
  <g id="sad_bear">
    <ellipse class="cls-1" cx="302.44" cy="42.58" rx="16.01" ry="11.84" transform="translate(39.74 198.37) rotate(-38.68)"/>
    <ellipse class="cls-2" cx="302.98" cy="44.37" rx="10.23" ry="6.91" transform="translate(46.18 211.16) rotate(-41.34)"/>
    <ellipse class="cls-1" cx="179.27" cy="37.35" rx="11.84" ry="16.01" transform="translate(110.74 207.16) rotate(-79.79)"/>
    <ellipse class="cls-2" cx="175.87" cy="40.77" rx="6.37" ry="9.65" transform="translate(54.57 174.49) rotate(-60.84)"/>
    <path class="cls-1" d="M192.54,153s-22.55-7.27-24.65-45.79c.06-7,1.14-20.16,1.14-20.16s1.79-14.25,3-19.75,2.07-9.1,2.07-9.1l1.46-6.83a21.31,21.31,0,0,1,3.62-7,17.11,17.11,0,0,1,6.32-4.84s1.75-1.87,7.51-4.61,26.37-7.28,50.24-6,38,3.86,48.69,7.74,16.51,29.45,16.51,29.45.31,11.35-.49,26.4-12.82,59-30.61,61.12C217.64,160.87,192.54,153,192.54,153Z"/>
    <g class="cls-3">
      <path class="cls-4" d="M192.35,119.52a31,31,0,0,0,8,21.27,32.2,32.2,0,0,0,19.43,10.12,1.94,1.94,0,0,0,2.31-1.31,1.9,1.9,0,0,0-1.31-2.31,29.13,29.13,0,0,1-17.52-8.86,27.12,27.12,0,0,1-7.12-18.91c.05-2.41-3.7-2.41-3.75,0Z"/>
    </g>
  </g>
  <g id="sad_bear_head">
    <path class="cls-2" d="M235.06,132.2a17.25,17.25,0,0,1,18.29,4.18c.56.58,1.44-.3.89-.88A18.48,18.48,0,0,0,234.73,131c-.75.28-.43,1.49.33,1.21Z"/>
    <path class="cls-2" d="M212.82,79.35c2.32,2.75,5.64,4.91,9.35,4.87s6.63-2.21,8.61-5.12c.91-1.33-1.26-2.59-2.16-1.26A8.07,8.07,0,0,1,222,81.72c-3,0-5.52-1.93-7.39-4.13-1-1.23-2.8.54-1.76,1.76Z"/>
    <path class="cls-2" d="M267.46,80.06c2.33,2.75,5.64,4.91,9.36,4.87s6.62-2.21,8.61-5.12c.9-1.34-1.26-2.59-2.16-1.26a8.12,8.12,0,0,1-6.65,3.88c-3,0-5.53-1.94-7.39-4.14-1-1.23-2.8.55-1.77,1.77Z"/>
    <path class="cls-5" d="M213,90.19c-1.75-.08-3.4,4.88-3.79,6.08-.65,1.93-1,3.12-.41,4.25a4.27,4.27,0,0,0,5.22,1.56,4.55,4.55,0,0,0,2.42-3C216.35,98.31,215.2,90.3,213,90.19Z"/>
    <path class="cls-5" d="M287.22,92.21c-1.73.22-2.49,5.39-2.68,6.64-.29,2-.46,3.26.35,4.26a4.26,4.26,0,0,0,5.4.64,4.61,4.61,0,0,0,1.87-3.37C291.92,99.63,289.4,91.94,287.22,92.21Z"/>
    <path class="cls-6" d="M292.59,111.55c-1.54.16-2.3,4.72-2.48,5.82-.3,1.78-.47,2.87.23,3.77a3.75,3.75,0,0,0,4.76.66,4.11,4.11,0,0,0,1.72-2.94C296.61,118.19,294.52,111.34,292.59,111.55Z"/>
    <ellipse class="cls-2" cx="249.95" cy="114.77" rx="11.46" ry="6.75" transform="translate(-1.66 3.68) rotate(-0.84)"/>
  </g>
</svg>
