<svg xmlns="http://www.w3.org/2000/svg" xmlns:xlink="http://www.w3.org/1999/xlink" width="185" height="110" viewBox="0 0 185 110">
  <defs>
    <style>
      .cls-1 {
        filter: url(#AI_GaussianBlur_4);
      }

      .cls-2 {
        fill: #95b9f0;
      }

      .cls-3 {
        fill: #ececec;
      }

      .cls-4 {
        fill: #f4b0b0;
      }

      .cls-5 {
        fill: #f7f7f7;
      }

      .cls-6 {
        fill: #dd9e9e;
      }
    </style>
    <filter id="AI_GaussianBlur_4" name="AI_GaussianBlur_4">
      <feGaussianBlur stdDeviation="4"/>
    </filter>
  </defs>
  <g id="bottle">
    <g class="cls-1">
      <path class="cls-2" d="M21.13,51.07a24.72,24.72,0,0,1,2.39,1.59c1.53,1.28,5.59,1.59,6.88,4.33,1.87,3.95,3.85.87,6,3,4,4,2.77,3.33,4,4,3.63,2,3.4,9.16,5.16,9.24L155.4,88.29c4.58,0,6.85.4,8.79-1.86a6.88,6.88,0,0,0,1.42-5.4l5.23-36.61a6,6,0,0,0,0-4.36c-1.23-2.77-4.23-2.47-9.28-3.82L54.35,20.33c-2-.55-3.46,1.58-8,2.64-1.56.37-.73.21-4,5-2.17,3.21-11.41,3.7-14.12,5.43a13.83,13.83,0,0,1-6.77,1.52C16.94,45.69,19.48,49.74,21.13,51.07Z"/>
    </g>
    <path class="cls-3" d="M36.74,51.73a19.57,19.57,0,0,1,2,1.4A12.79,12.79,0,0,1,42,58c1.56,3.52,1.12,3.6,2,5.29a15.26,15.26,0,0,0,5.83,5.83,16.19,16.19,0,0,0,7.47,2.17L150.4,84.05c3.88,0,5.8.31,7.46-1.71a6.41,6.41,0,0,0,1.24-4.82l4.66-32.65a5.52,5.52,0,0,0,0-3.89c-1-2.46-3.57-2.17-7.85-3.34L65.11,24.13A17.28,17.28,0,0,0,56.25,24c-1.33.34-6.39,1.61-9.17,5.91-1.86,2.88-1.89,4.51-4.2,6.07a11.42,11.42,0,0,1-5.75,1.4C33.22,47,35.36,50.55,36.74,51.73Z"/>
    <rect class="cls-4" x="58.23" y="34.5" width="47.82" height="32.43" transform="translate(20.33 124.86) rotate(-81.88)"/>
    <path class="cls-5" d="M44.36,38.29c-.81,1,.8,2.33,1.63,3.1,1.09-1,2.78-2.53,4.79-4.47,3.94-3.79,4.85-5,7.07-5.86a14.69,14.69,0,0,1,7.7-.61c.79-1.32.51-2,.32-2.25-.86-1.26-4.43-1.37-9-.13-2.19.83-4.63,3.34-7,5.29A61.33,61.33,0,0,0,44.36,38.29Z"/>
    <path class="cls-5" d="M103.55,34.89l-.22,1.57A1.92,1.92,0,0,0,105,38.64l47.28,6.75a2,2,0,0,1,.58.18c.8.4,2.92,1.62,3.14,3.58l.11.94a1.93,1.93,0,0,0,1.64,1.69l.6.09a1.93,1.93,0,0,0,2.2-1.88,11,11,0,0,0-4.05-8.7A6.23,6.23,0,0,0,153,40l-47.28-6.75A1.93,1.93,0,0,0,103.55,34.89Z"/>
    <g>
      <rect class="cls-4" x="19.85" y="36.09" width="19.68" height="15.27" rx="3.6" transform="translate(-17.79 66.95) rotate(-81.88)"/>
      <rect class="cls-6" x="30.02" y="30.15" width="1.05" height="15.27" transform="translate(-11.18 62.68) rotate(-81.88)"/>
      <rect class="cls-6" x="29.48" y="33.92" width="1.05" height="15.27" transform="translate(-15.37 65.38) rotate(-81.88)"/>
      <rect class="cls-6" x="28.87" y="38.15" width="1.05" height="15.27" transform="translate(-20.08 68.42) rotate(-81.88)"/>
      <rect class="cls-6" x="28.27" y="42.38" width="1.05" height="15.27" transform="translate(-24.79 71.46) rotate(-81.88)"/>
    </g>
  </g>
</svg>
