<svg xmlns="http://www.w3.org/2000/svg" xmlns:xlink="http://www.w3.org/1999/xlink" width="100" height="100" viewBox="0 0 100 100">
  <defs>
    <style>
      .cls-1 {
        filter: url(#AI_GaussianBlur_4);
      }

      .cls-2 {
        fill: #fff;
      }

      .cls-3 {
        fill: #f4b0b0;
      }
    </style>
    <filter id="AI_GaussianBlur_4" name="AI_GaussianBlur_4">
      <feGaussianBlur stdDeviation="4"/>
    </filter>
  </defs>
  <g id="restart_button">
    <g class="cls-1">
      <path class="cls-2" d="M66.23,84.64V68.53c0-.22,0-.44,0-.66a2.1,2.1,0,0,0-2-2H53.56a3.57,3.57,0,0,0-.56,0,2,2,0,0,0-1.87,1.89,8.38,8.38,0,0,0,0,.86q0,7.74,0,15.46v.55l-.43,0H39.56a3.32,3.32,0,0,1-1.85-.47,2.87,2.87,0,0,1-1.3-2.39c0-.22,0-.44,0-.66q0-13.73,0-27.45a3.73,3.73,0,0,1,1.46-3.13Q47.25,42.81,56.62,35a2.89,2.89,0,0,1,4.1,0q9.48,7.83,19,15.68a3.29,3.29,0,0,1,1.25,2.68q0,14,0,28a2.91,2.91,0,0,1-3.16,3.23H66.23Z"/>
    </g>
    <g class="cls-1">
      <path class="cls-2" d="M30.12,48.12c-.29-1.72.49-2.86,1.82-3.9,7.55-5.87,15-11.8,22.56-17.69a6.15,6.15,0,0,1,8,0c3.8,2.95,7.57,5.94,11.36,8.92s7.74,6.1,11.63,9.13a3.37,3.37,0,0,1,1.43,3c0,.63,0,1.27,0,1.9a2.82,2.82,0,0,1-3,2.56,2.79,2.79,0,0,1-2.71-2.76,1.69,1.69,0,0,0-.71-1.37L68.55,38.54l-7.75-6.1-.3-.23a2.89,2.89,0,0,0-4,0q-8,6.33-16.07,12.64c-1.34,1-2.68,2.12-4,3.15a1.32,1.32,0,0,0-.58,1.12A2.79,2.79,0,0,1,33.39,52a2.86,2.86,0,0,1-3.27-2.65C30.1,48.94,30.12,48.53,30.12,48.12Z"/>
    </g>
    <path class="cls-3" d="M65.45,83.2v-.57q0-7.26,0-14.54c0-.2,0-.41,0-.61a2,2,0,0,0-1.92-1.92H53.3a3.26,3.26,0,0,0-.54,0A1.92,1.92,0,0,0,51,67.35a7.32,7.32,0,0,0,0,.81v15l-.42,0H39.87a3.23,3.23,0,0,1-1.77-.45,2.71,2.71,0,0,1-1.25-2.24c0-.2,0-.41,0-.62q0-12.87,0-25.75a3.48,3.48,0,0,1,1.39-2.93q9-7.26,18-14.56a2.82,2.82,0,0,1,3.93,0L78.34,51.37a3.06,3.06,0,0,1,1.2,2.52V80.18a2.76,2.76,0,0,1-3,3h-11Z"/>
    <path class="cls-3" d="M29.48,50c-.29-1.74.5-2.9,1.85-3.95C39,40.1,46.53,34.1,54.14,28.14a6.24,6.24,0,0,1,8.09,0c3.85,3,7.67,6,11.5,9s7.83,6.17,11.76,9.24a3.38,3.38,0,0,1,1.45,3c0,.64,0,1.29,0,1.92a2.88,2.88,0,0,1-5.74-.2,1.68,1.68,0,0,0-.71-1.38L68.36,40.29l-7.84-6.17-.3-.24a2.93,2.93,0,0,0-4,0L39.91,46.67c-1.35,1.07-2.7,2.14-4.08,3.19A1.32,1.32,0,0,0,35.25,51a2.83,2.83,0,0,1-2.46,2.91,2.91,2.91,0,0,1-3.31-2.68C29.46,50.8,29.48,50.39,29.48,50Z"/>
  </g>
</svg>
