<svg xmlns="http://www.w3.org/2000/svg" xmlns:xlink="http://www.w3.org/1999/xlink" width="100" height="100" viewBox="0 0 100 100">
  <defs>
    <style>
      .cls-1 {
        opacity: 0.79;
        filter: url(#AI_GaussianBlur_4);
      }

      .cls-2 {
        fill: #fff;
      }

      .cls-3 {
        fill: #f4b0b0;
      }
    </style>
    <filter id="AI_GaussianBlur_4" name="AI_GaussianBlur_4">
      <feGaussianBlur stdDeviation="4"/>
    </filter>
  </defs>
  <g id="mute_button">
    <g id="shadow-2" data-name="shadow" class="cls-1">
      <circle class="cls-2" cx="49.8" cy="49.8" r="39"/>
    </g>
    <circle id="kolo" class="cls-2" cx="41.91" cy="50.26" r="38.54"/>
    <path class="cls-3" d="M45.22,49.8q0,10,.05,20a7.72,7.72,0,0,1-.23,2,2.12,2.12,0,0,1-3.21,1.48,6.18,6.18,0,0,1-1.27-.8c-3.85-3.17-7.69-6.36-11.55-9.52a1.24,1.24,0,0,0-.74-.27c-2,0-4,0-6,0a6.47,6.47,0,0,1-6.59-6.52q0-6.63,0-13.26A6.5,6.5,0,0,1,22,36.44c2,0,4,0,5.94,0a1.24,1.24,0,0,0,.74-.27c3.73-3,7.44-6,11.17-9a7.09,7.09,0,0,1,1.48-.93A2.42,2.42,0,0,1,45,28a8.43,8.43,0,0,1,.19,1.74q0,10,.06,20Z"/>
    <path class="cls-3" d="M58.77,53.22l-3.09,3.15c-.82.83-1.62,1.66-2.46,2.46a2.24,2.24,0,0,1-3.74-1.08,2.18,2.18,0,0,1,.62-2.16c1.71-1.73,3.43-3.45,5.14-5.17a3.59,3.59,0,0,1,.38-.25l-.75-.79L50.3,44.59a2.26,2.26,0,1,1,3.31-3.07l4.69,4.67A9,9,0,0,1,59,47l.85-.84c1.55-1.56,3.1-3.13,4.67-4.68a2.27,2.27,0,0,1,3.63.47,2.3,2.3,0,0,1-.46,2.74l-5.1,5.11a3.59,3.59,0,0,1-.38.25l1.67,1.76c1.21,1.27,2.42,2.52,3.62,3.79a2.25,2.25,0,1,1-3.18,3.19c-1.42-1.38-2.82-2.78-4.22-4.18C59.64,54.15,59.24,53.71,58.77,53.22Z"/>
  </g>
</svg>
