<svg xmlns="http://www.w3.org/2000/svg" xmlns:xlink="http://www.w3.org/1999/xlink" width="100" height="100" viewBox="0 0 100 100">
  <defs>
    <style>
      .cls-1 {
        opacity: 0.79;
        filter: url(#AI_GaussianBlur_4);
      }

      .cls-2 {
        fill: #fff;
      }

      .cls-3 {
        fill: #f4b0b0;
      }
    </style>
    <filter id="AI_GaussianBlur_4" name="AI_GaussianBlur_4">
      <feGaussianBlur stdDeviation="4"/>
    </filter>
  </defs>
  <g id="unmute_button">
    <g id="shadow-2" data-name="shadow" class="cls-1">
      <circle class="cls-2" cx="49.8" cy="49.8" r="39"/>
    </g>
    <circle class="cls-2" cx="41.91" cy="50.26" r="38.54"/>
    <g>
      <g>
        <path class="cls-3" d="M69.54,49.56c-.13,1.41-.19,2.82-.41,4.22a26.76,26.76,0,0,1-5.35,12.38,15.19,15.19,0,0,1-1.24,1.42,2.32,2.32,0,0,1-3,.27,2.36,2.36,0,0,1-.94-3,3.67,3.67,0,0,1,.58-.92,22.35,22.35,0,0,0,0-28.86,2.81,2.81,0,0,1-.77-1.89,2.45,2.45,0,0,1,1.79-2.3,2.41,2.41,0,0,1,2.64.88A27.2,27.2,0,0,1,66,36.17a27,27,0,0,1,3.51,13.38Z"/>
        <path class="cls-3" d="M58.42,49.22a23.52,23.52,0,0,1-.56,5.36,22.45,22.45,0,0,1-3.36,7.66A2.44,2.44,0,0,1,52,63.33a2.39,2.39,0,0,1-2-1.8,2.32,2.32,0,0,1,.25-1.93c.51-.84,1-1.68,1.49-2.55a16.14,16.14,0,0,0,1.4-4.26,17.39,17.39,0,0,0,.06-6.23,17,17,0,0,0-2.83-6.93A2.53,2.53,0,0,1,51.24,36a2.38,2.38,0,0,1,2.94.51,16.07,16.07,0,0,1,1.45,2.2A20.65,20.65,0,0,1,57.73,44,21.56,21.56,0,0,1,58.42,49.22Z"/>
      </g>
      <path class="cls-3" d="M45.22,49.8q0,10,.05,20a7.72,7.72,0,0,1-.23,2,2.12,2.12,0,0,1-3.21,1.48,6.18,6.18,0,0,1-1.27-.8c-3.85-3.17-7.69-6.36-11.55-9.52a1.24,1.24,0,0,0-.74-.27c-2,0-4,0-6,0a6.47,6.47,0,0,1-6.59-6.52q0-6.63,0-13.26A6.5,6.5,0,0,1,22,36.44c2,0,4,0,5.94,0a1.24,1.24,0,0,0,.74-.27c3.73-3,7.44-6,11.17-9a7.09,7.09,0,0,1,1.48-.93A2.42,2.42,0,0,1,45,28a8.43,8.43,0,0,1,.19,1.74q0,10,.06,20Z"/>
    </g>
  </g>
</svg>
