<svg xmlns="http://www.w3.org/2000/svg" xmlns:xlink="http://www.w3.org/1999/xlink" width="320" height="100" viewBox="0 0 320 100">
  <defs>
    <style>
      .cls-1 {
        filter: url(#AI_GaussianBlur_4);
      }

      .cls-2 {
        fill: #fff;
      }

      .cls-3 {
        fill: #e9f3fd;
      }

      .cls-4 {
        fill: #f4b0b0;
      }
    </style>
    <filter id="AI_GaussianBlur_4" name="AI_GaussianBlur_4">
      <feGaussianBlur stdDeviation="4"/>
    </filter>
  </defs>
  <g id="play_again_button">
    <g>
      <g class="cls-1">
        <rect class="cls-2" x="27.9" y="8.32" width="264" height="83.24" rx="12"/>
      </g>
      <rect class="cls-3" x="27.9" y="8.32" width="251.32" height="76.11" rx="12"/>
      <g>
        <path class="cls-2" d="M54.22,62.17a2.64,2.64,0,0,1-1.31-.34,1.1,1.1,0,0,1-.61-1V30.07a1.14,1.14,0,0,1,.43-.91,1.83,1.83,0,0,1,1.12-.41h8.64a11.87,11.87,0,0,1,4.94,1,7.58,7.58,0,0,1,3.48,3.13,11.28,11.28,0,0,1,1.28,5.76V39a11.27,11.27,0,0,1-1.3,5.78A7.62,7.62,0,0,1,67.34,48a12.3,12.3,0,0,1-5,1H56.14V60.8a1.11,1.11,0,0,1-.6,1A2.57,2.57,0,0,1,54.22,62.17Zm1.92-16.41h6.17a6,6,0,0,0,4.44-1.6,6.7,6.7,0,0,0,1.6-4.9v-.54a6.68,6.68,0,0,0-1.6-4.92,6.07,6.07,0,0,0-4.44-1.58H56.14Z"/>
        <path class="cls-2" d="M78.5,62.17a2.19,2.19,0,0,1-1.19-.34,1.13,1.13,0,0,1-.55-1V30.07a1.06,1.06,0,0,1,.62-1,2.86,2.86,0,0,1,2.63,0,1.07,1.07,0,0,1,.59,1V58.7H93.13a1,1,0,0,1,.94.52,2.57,2.57,0,0,1,0,2.41,1,1,0,0,1-.94.54Z"/>
        <path class="cls-2" d="M98,62.17a3,3,0,0,1-1-.2A2.41,2.41,0,0,1,96,61.4a1.23,1.23,0,0,1-.34-.83,1.49,1.49,0,0,1,0-.36l9.37-30.41a1.51,1.51,0,0,1,.87-1,3.49,3.49,0,0,1,1.46-.32,3.42,3.42,0,0,1,1.51.34,1.56,1.56,0,0,1,.87,1l9.33,30.41a.74.74,0,0,1,.09.32,1.1,1.1,0,0,1-.39.82,3.38,3.38,0,0,1-.93.6,2.8,2.8,0,0,1-1.06.22A1.68,1.68,0,0,1,116,62a1.07,1.07,0,0,1-.51-.67l-2-6.81h-12l-2,6.81a1.08,1.08,0,0,1-.52.67A2,2,0,0,1,98,62.17Zm4.34-10.83h10.25l-5.13-17.2Z"/>
        <path class="cls-2" d="M129.53,62.17a2.6,2.6,0,0,1-1.3-.34,1.11,1.11,0,0,1-.62-1V49.23a1,1,0,0,0-.09-.45l-9.47-17.66a2.61,2.61,0,0,1-.13-.43,1.74,1.74,0,0,1,0-.34,1.13,1.13,0,0,1,.37-.83,2.62,2.62,0,0,1,.89-.57,2.73,2.73,0,0,1,1-.2,1.2,1.2,0,0,1,.8.25,2.82,2.82,0,0,1,.57.75l8,15.69,8.05-15.69a2.48,2.48,0,0,1,.59-.75,1.23,1.23,0,0,1,.78-.25,2.73,2.73,0,0,1,1,.2,2.62,2.62,0,0,1,.89.57,1.13,1.13,0,0,1,.37.83,1.74,1.74,0,0,1-.05.34,2,2,0,0,1-.14.43l-9.46,17.66a.73.73,0,0,0-.14.45V60.8a1.12,1.12,0,0,1-.59,1A2.61,2.61,0,0,1,129.53,62.17Z"/>
        <path class="cls-2" d="M154.13,62.17a3,3,0,0,1-1-.2,2.36,2.36,0,0,1-.91-.57,1.18,1.18,0,0,1-.34-.83,1.47,1.47,0,0,1,0-.36l9.38-30.41a1.51,1.51,0,0,1,.87-1,3.51,3.51,0,0,1,3,0,1.59,1.59,0,0,1,.87,1l9.33,30.41a.74.74,0,0,1,.09.32,1.1,1.1,0,0,1-.39.82,3.29,3.29,0,0,1-.94.6,2.79,2.79,0,0,1-1,.22,1.7,1.7,0,0,1-.87-.2,1.09,1.09,0,0,1-.5-.67l-2.06-6.81h-12l-2,6.81a1.1,1.1,0,0,1-.53.67A2,2,0,0,1,154.13,62.17Zm4.35-10.83h10.24l-5.12-17.2Z"/>
        <path class="cls-2" d="M188.89,62.45a12.34,12.34,0,0,1-5-1,7.67,7.67,0,0,1-3.52-3.18,11.31,11.31,0,0,1-1.31-5.81V38.72a11.29,11.29,0,0,1,1.31-5.81,7.56,7.56,0,0,1,3.52-3.18,11.93,11.93,0,0,1,4.91-1,12.43,12.43,0,0,1,5.24,1,8.44,8.44,0,0,1,3.48,2.86,7.48,7.48,0,0,1,1.25,4.3,1.79,1.79,0,0,1-.5,1.49,2.28,2.28,0,0,1-1.42.39,2.68,2.68,0,0,1-1.32-.3,1.16,1.16,0,0,1-.6-1,7.38,7.38,0,0,0-.82-2.77,4.59,4.59,0,0,0-1.92-1.83,7.19,7.19,0,0,0-3.29-.66,6,6,0,0,0-4.42,1.58q-1.58,1.58-1.57,4.92V52.48c0,2.23.52,3.86,1.57,4.92a7,7,0,0,0,8.85,0c1.07-1.06,1.6-2.69,1.6-4.92V47.82h-5.44a1.11,1.11,0,0,1-1-.51,1.89,1.89,0,0,1,0-2.19,1.11,1.11,0,0,1,1-.51h8a1.2,1.2,0,0,1,1,.42,1.5,1.5,0,0,1,.34,1v6.45a11.31,11.31,0,0,1-1.3,5.81,7.67,7.67,0,0,1-3.54,3.18A12.54,12.54,0,0,1,188.89,62.45Z"/>
        <path class="cls-2" d="M204.25,62.17a3,3,0,0,1-1-.2,2.29,2.29,0,0,1-.91-.57,1.19,1.19,0,0,1-.35-.83,1.49,1.49,0,0,1,0-.36l9.37-30.41a1.56,1.56,0,0,1,.87-1,3.53,3.53,0,0,1,3,0,1.58,1.58,0,0,1,.86,1l9.33,30.41a.74.74,0,0,1,.09.32,1.13,1.13,0,0,1-.38.82,3.44,3.44,0,0,1-.94.6,2.79,2.79,0,0,1-1.05.22,1.7,1.7,0,0,1-.87-.2,1.1,1.1,0,0,1-.51-.67l-2-6.81h-12l-2,6.81a1,1,0,0,1-.52.67A2,2,0,0,1,204.25,62.17Zm4.34-10.83h10.25l-5.12-17.2Z"/>
        <path class="cls-2" d="M231.41,62.17a2.63,2.63,0,0,1-1.3-.34,1.11,1.11,0,0,1-.62-1V30.07a1.06,1.06,0,0,1,.62-1,2.86,2.86,0,0,1,2.63,0,1.05,1.05,0,0,1,.59,1V60.8a1.1,1.1,0,0,1-.59,1A2.61,2.61,0,0,1,231.41,62.17Z"/>
        <path class="cls-2" d="M241.79,62.17a2.63,2.63,0,0,1-1.3-.34,1.11,1.11,0,0,1-.62-1V30.07a1.06,1.06,0,0,1,.62-1,3.08,3.08,0,0,1,1.3-.29A2.61,2.61,0,0,1,243,29a3,3,0,0,1,.91.8,8,8,0,0,1,.83,1.35l11.34,22.27V30.07a1.05,1.05,0,0,1,.61-1,2.76,2.76,0,0,1,1.31-.32,2.66,2.66,0,0,1,1.32.32,1.06,1.06,0,0,1,.6,1V60.8a1.11,1.11,0,0,1-.6,1,2.57,2.57,0,0,1-1.32.34,2.06,2.06,0,0,1-1.35-.5,4.25,4.25,0,0,1-1-1.23l-11.94-23V60.8a1.1,1.1,0,0,1-.59,1A2.61,2.61,0,0,1,241.79,62.17Z"/>
      </g>
      <g>
        <path class="cls-4" d="M51.38,61.83a2.64,2.64,0,0,1-1.3-.35,1.11,1.11,0,0,1-.62-1V29.72a1.15,1.15,0,0,1,.44-.91A1.9,1.9,0,0,1,51,28.4h8.64a12,12,0,0,1,4.94,1,7.61,7.61,0,0,1,3.47,3.13,11.18,11.18,0,0,1,1.28,5.76v.42a11.17,11.17,0,0,1-1.3,5.78,7.68,7.68,0,0,1-3.54,3.16,12.5,12.5,0,0,1-5,1H53.3V60.45a1.1,1.1,0,0,1-.59,1A2.62,2.62,0,0,1,51.38,61.83ZM53.3,45.41h6.18a6,6,0,0,0,4.43-1.6,6.65,6.65,0,0,0,1.6-4.89v-.55q0-3.34-1.6-4.92a6,6,0,0,0-4.43-1.58H53.3Z"/>
        <path class="cls-4" d="M75.66,61.83a2.17,2.17,0,0,1-1.18-.35,1.13,1.13,0,0,1-.55-1V29.72a1.05,1.05,0,0,1,.61-1,2.88,2.88,0,0,1,1.31-.32,2.77,2.77,0,0,1,1.32.32,1.06,1.06,0,0,1,.6,1V58.35H90.3a1,1,0,0,1,.93.53,2.39,2.39,0,0,1,.3,1.21,2.47,2.47,0,0,1-.3,1.19,1,1,0,0,1-.93.55Z"/>
        <path class="cls-4" d="M95.14,61.83a3,3,0,0,1-1-.21,2.33,2.33,0,0,1-.92-.57,1.18,1.18,0,0,1-.34-.83,1.47,1.47,0,0,1,0-.36l9.38-30.41a1.51,1.51,0,0,1,.87-1,3.42,3.42,0,0,1,1.46-.32,3.32,3.32,0,0,1,1.51.35,1.53,1.53,0,0,1,.87,1l9.33,30.41a.74.74,0,0,1,.09.32A1.1,1.1,0,0,1,116,61a3.09,3.09,0,0,1-.94.6,2.73,2.73,0,0,1-1,.23,1.7,1.7,0,0,1-.87-.21,1.1,1.1,0,0,1-.5-.66l-2.06-6.82h-12l-2,6.82a1.07,1.07,0,0,1-.53.66A2,2,0,0,1,95.14,61.83ZM99.49,51h10.24l-5.12-17.2Z"/>
        <path class="cls-4" d="M126.7,61.83a2.68,2.68,0,0,1-1.31-.35,1.1,1.1,0,0,1-.61-1V48.88a1,1,0,0,0-.09-.45l-9.47-17.65a3.15,3.15,0,0,1-.14-.44,1.61,1.61,0,0,1,0-.34,1.16,1.16,0,0,1,.36-.83,2.72,2.72,0,0,1,.89-.57,3,3,0,0,1,1-.2,1.18,1.18,0,0,1,.8.25,2.62,2.62,0,0,1,.57.75l8,15.69,8-15.69a2.48,2.48,0,0,1,.59-.75,1.2,1.2,0,0,1,.78-.25,3,3,0,0,1,1,.2,2.72,2.72,0,0,1,.89.57,1.16,1.16,0,0,1,.36.83,1.61,1.61,0,0,1,0,.34,3.15,3.15,0,0,1-.14.44l-9.47,17.65a.73.73,0,0,0-.13.45V60.45a1.11,1.11,0,0,1-.6,1A2.58,2.58,0,0,1,126.7,61.83Z"/>
        <path class="cls-4" d="M151.3,61.83a3,3,0,0,1-1-.21,2.29,2.29,0,0,1-.91-.57,1.19,1.19,0,0,1-.35-.83,1.49,1.49,0,0,1,.05-.36l9.37-30.41a1.51,1.51,0,0,1,.87-1,3.49,3.49,0,0,1,1.46-.32,3.29,3.29,0,0,1,1.51.35,1.53,1.53,0,0,1,.87,1l9.33,30.41a.74.74,0,0,1,.09.32,1.1,1.1,0,0,1-.39.82,3.17,3.17,0,0,1-.93.6,2.81,2.81,0,0,1-1.05.23,1.7,1.7,0,0,1-.87-.21,1.07,1.07,0,0,1-.51-.66l-2.05-6.82h-12l-2,6.82a1.09,1.09,0,0,1-.52.66A2,2,0,0,1,151.3,61.83ZM155.64,51h10.25l-5.13-17.2Z"/>
        <path class="cls-4" d="M186.05,62.1a12.34,12.34,0,0,1-5-1,7.72,7.72,0,0,1-3.52-3.18,11.31,11.31,0,0,1-1.3-5.81V38.37a11.29,11.29,0,0,1,1.3-5.81A7.72,7.72,0,0,1,181,29.38a12.11,12.11,0,0,1,4.92-1,12.31,12.31,0,0,1,5.24,1,8.45,8.45,0,0,1,3.47,2.85,7.41,7.41,0,0,1,1.26,4.3,1.82,1.82,0,0,1-.5,1.49,2.28,2.28,0,0,1-1.42.39,2.75,2.75,0,0,1-1.33-.3,1.17,1.17,0,0,1-.59-1,7.46,7.46,0,0,0-.82-2.76,4.45,4.45,0,0,0-1.93-1.83,7,7,0,0,0-3.29-.67,6,6,0,0,0-4.41,1.58q-1.57,1.57-1.58,4.92V52.13q0,3.34,1.58,4.92a6,6,0,0,0,4.41,1.57,6.06,6.06,0,0,0,4.44-1.57,6.68,6.68,0,0,0,1.6-4.92V47.47h-5.44a1.12,1.12,0,0,1-1-.51,1.93,1.93,0,0,1,0-2.19,1.12,1.12,0,0,1,1-.5h7.95a1.2,1.2,0,0,1,1,.41,1.5,1.5,0,0,1,.34,1v6.45a11.42,11.42,0,0,1-1.3,5.81,7.64,7.64,0,0,1-3.55,3.18A12.47,12.47,0,0,1,186.05,62.1Z"/>
        <path class="cls-4" d="M201.42,61.83a3,3,0,0,1-1-.21,2.41,2.41,0,0,1-.92-.57,1.18,1.18,0,0,1-.34-.83,1.12,1.12,0,0,1,.05-.36l9.37-30.41a1.51,1.51,0,0,1,.87-1,3.46,3.46,0,0,1,1.46-.32,3.32,3.32,0,0,1,1.51.35,1.53,1.53,0,0,1,.87,1l9.33,30.41a.74.74,0,0,1,.09.32,1.1,1.1,0,0,1-.39.82,3.09,3.09,0,0,1-.94.6,2.73,2.73,0,0,1-1,.23,1.75,1.75,0,0,1-.87-.21,1.1,1.1,0,0,1-.5-.66l-2.06-6.82h-12l-2,6.82a1.07,1.07,0,0,1-.53.66A1.94,1.94,0,0,1,201.42,61.83ZM205.76,51H216l-5.12-17.2Z"/>
        <path class="cls-4" d="M228.58,61.83a2.61,2.61,0,0,1-1.3-.35,1.1,1.1,0,0,1-.62-1V29.72a1,1,0,0,1,.62-1,2.81,2.81,0,0,1,1.3-.32,2.74,2.74,0,0,1,1.32.32,1.06,1.06,0,0,1,.6,1V60.45a1.11,1.11,0,0,1-.6,1A2.55,2.55,0,0,1,228.58,61.83Z"/>
        <path class="cls-4" d="M239,61.83a2.61,2.61,0,0,1-1.3-.35,1.1,1.1,0,0,1-.62-1V29.72a1,1,0,0,1,.62-1,3,3,0,0,1,1.3-.29,2.54,2.54,0,0,1,1.23.27,3,3,0,0,1,.92.8,8,8,0,0,1,.82,1.35l11.34,22.27V29.72a1.06,1.06,0,0,1,.62-1,2.86,2.86,0,0,1,2.63,0,1.07,1.07,0,0,1,.59,1V60.45a1.12,1.12,0,0,1-.59,1,2.62,2.62,0,0,1-1.33.35,2.09,2.09,0,0,1-1.35-.51,4.09,4.09,0,0,1-1-1.23l-11.94-23V60.45a1.11,1.11,0,0,1-.6,1A2.55,2.55,0,0,1,239,61.83Z"/>
      </g>
    </g>
  </g>
</svg>
