<svg xmlns="http://www.w3.org/2000/svg" xmlns:xlink="http://www.w3.org/1999/xlink" width="185" height="110" viewBox="0 0 185 110">
  <defs>
    <style>
      .cls-1 {
        fill: #fff;
        filter: url(#AI_GaussianBlur_4);
      }

      .cls-2 {
        fill: #f4b0b0;
      }
    </style>
    <filter id="AI_GaussianBlur_4" name="AI_GaussianBlur_4">
      <feGaussianBlur stdDeviation="4"/>
    </filter>
  </defs>
  <g id="clock">
    <path class="cls-1" d="M94.22,2.52c2.43,0,4.87,0,7.3,0a3.67,3.67,0,0,1,3.66,3.29,3.51,3.51,0,0,1-2.66,3.78,12.12,12.12,0,0,1-3.3.16c-1,0-1.33.3-1.26,1.25a20.86,20.86,0,0,1,0,2.5c-.06.82.29,1.12,1.1,1.27,3.11.57,6.26,1,9.3,1.87a43.05,43.05,0,0,1,15.18,7.79c.78.61,1.32.72,2-.07.85-1,1.8-1.82,2.72-2.7a3.75,3.75,0,0,1,5.35-.05,3.52,3.52,0,0,1-.15,5.15c-.9.91-1.8,1.83-2.74,2.69-.67.61-.73,1.06-.1,1.8A45.65,45.65,0,0,1,140,73a45.35,45.35,0,0,1-17.74,25.5,45.84,45.84,0,0,1-31.74,8.79C73.09,105.7,60.24,97.1,52.09,82A43.78,43.78,0,0,1,47.9,51.74a44.8,44.8,0,0,1,10-20.35c.58-.69.6-1.08-.07-1.68a38.18,38.18,0,0,1-3.2-3.16,3.53,3.53,0,0,1,1-5.64,3.75,3.75,0,0,1,4.12.55Q61.43,23,63,24.67c.55.58.92.7,1.63.13a47.06,47.06,0,0,1,21.5-9.6c1.15-.21,2.33-.32,3.51-.45.65-.07,1-.33,1-1,0-1,0-2,0-3,0-.65-.28-.92-.94-.91-.88,0-1.77,0-2.65,0A3.67,3.67,0,0,1,83.2,6.2a3.59,3.59,0,0,1,3.71-3.65c2.44,0,4.87,0,7.31,0ZM134.3,61.34c0-21.73-18-39.32-40.07-39.32-22,0-40,17.72-40,39.34s18,39.39,40.15,39.36C116.41,100.68,134.32,83,134.3,61.34Z"/>
    <path class="cls-2" d="M94.12,6.3c2.19,0,4.38,0,6.57,0a3.32,3.32,0,0,1,3.29,3,3.22,3.22,0,0,1-2.4,3.47,11.22,11.22,0,0,1-3,.15c-.88,0-1.2.27-1.14,1.14a17.5,17.5,0,0,1,0,2.29c0,.75.27,1,1,1.16,2.8.52,5.63.95,8.36,1.71a38.69,38.69,0,0,1,13.66,7.13c.7.55,1.18.66,1.82-.07s1.62-1.66,2.45-2.47a3.34,3.34,0,0,1,4.81,0,3.26,3.26,0,0,1-.14,4.71c-.81.84-1.61,1.68-2.46,2.46-.6.56-.65,1-.09,1.65a42.26,42.26,0,0,1,8.44,38.2,41.54,41.54,0,0,1-16,23.34,40.74,40.74,0,0,1-28.55,8C75.11,100.75,63.55,92.87,56.22,79a40.79,40.79,0,0,1-3.77-27.66,41.35,41.35,0,0,1,9-18.62c.52-.63.54-1-.06-1.54a32.73,32.73,0,0,1-2.88-2.89,3.25,3.25,0,0,1,.89-5.16,3.33,3.33,0,0,1,3.71.5q1.54,1.41,3,2.94c.5.53.84.64,1.47.12a42,42,0,0,1,19.34-8.79c1-.19,2.1-.29,3.15-.41.59-.06.91-.3.89-.94,0-.93,0-1.86,0-2.79,0-.59-.26-.84-.84-.82-.8,0-1.6,0-2.39,0A3.35,3.35,0,0,1,84.2,9.67a3.27,3.27,0,0,1,3.35-3.33c2.19,0,4.38,0,6.57,0Zm36,53.84a36,36,0,1,0-35.87,36A36,36,0,0,0,130.17,60.14Z"/>
    <circle class="cls-2" cx="94.36" cy="60.47" r="32.28"/>
  </g>
</svg>
