<svg xmlns="http://www.w3.org/2000/svg" xmlns:xlink="http://www.w3.org/1999/xlink" width="185" height="110" viewBox="0 0 185 110">
  <defs>
    <style>
      .cls-1 {
        filter: url(#AI_GaussianBlur_4);
      }

      .cls-2 {
        fill: #95b9f0;
      }

      .cls-3 {
        fill: #f4b0b0;
      }

      .cls-4 {
        fill: #fcbf95;
      }

      .cls-5 {
        fill: #d4145a;
      }

      .cls-5, .cls-6 {
        fill-opacity: 0.16;
      }

      .cls-6 {
        fill: #f7931e;
      }

      .cls-7 {
        fill: #e6e6e6;
      }

      .cls-8 {
        fill: #1d1d1b;
      }

      .cls-9 {
        fill: #f2f2f2;
        opacity: 0.62;
      }
    </style>
    <filter id="AI_GaussianBlur_4" name="AI_GaussianBlur_4">
      <feGaussianBlur stdDeviation="4"/>
    </filter>
  </defs>
  <g id="fish">
    <g id="Layer_29" data-name="Layer 29">
      <g class="cls-1">
        <path class="cls-2" d="M150.5,53.43c-.06-.54.69-2.4-2.29-6.73-3.75-5.44-5.61-7-6.27-7.52-8.73-7.4-14.22-10.32-18.3-11.83-7-2.6-13.49-4.59-18-5-2.23-.22-6.77-.59-19.71-.06-15.29.62-25.74,1.81-30.44,2.39C42.68,26.24,38.82,27.43,36,28.49c-4.61,1.72-10.32,3.93-15.32,9.5a31.92,31.92,0,0,0-6.38,11,29.84,29.84,0,0,0-1.5,14l15.64,3.53-11.6,7.47A31,31,0,0,0,20.63,79C28,86.83,37.48,88.62,47.78,90.4c10.46,1.81,18.8,1.31,35.49.3,10.22-.61,17.56-1.09,27.45-3.22,9.13-2,17.18-5.37,24.12-10.88,10.45-8.29,5.72-4.17,11.34-10.29A16.82,16.82,0,0,0,150.5,53.43Z"/>
      </g>
      <g class="cls-1">
        <path class="cls-2" d="M135.62,53.67c.53-3.37-1-4.68,2.59-11.62,4.32-8.42,5.86-8.63,8.89-10.87a35,35,0,0,1,12.32-4.75c8.3-1.44,8.3-1.44,10.43-.49.94.41,1-.05.34,7.3-.85,9-4,11.11-6.66,13.89a21.25,21.25,0,0,1-4,3.33,63.3,63.3,0,0,0,3.43,6.11c2.7,4.25,3.79,4.85,5.6,8.1s4.26,7.63,2.58,10.33c-1.19,1.89-3.89,2.15-6.16,2.38a23.58,23.58,0,0,1-12.66-2.55C145.12,71.25,134.24,62.4,135.62,53.67Z"/>
      </g>
      <g class="cls-1">
        <path class="cls-2" d="M59.48,28.08a92.44,92.44,0,0,1,6.21-8,36.11,36.11,0,0,1,8.45-7A35,35,0,0,1,86,8.17c3.61-.78,9.48.74,12.25,3.82,1.52,1.69,2,4.87,2.55,7.56a25,25,0,0,1,.36,7.67"/>
      </g>
      <g class="cls-1">
        <path class="cls-2" d="M64.42,84.22A96.21,96.21,0,0,0,71,91.9a36.09,36.09,0,0,0,8.77,6.58,35,35,0,0,0,12.07,4.38c3.64.61,9.44-1.18,12.06-4.38,1.44-1.76,1.77-5,2.19-7.68a24.89,24.89,0,0,0,0-7.68"/>
      </g>
    </g>
    <path class="cls-3" d="M135.33,52.33c.42-2.7-.78-3.75,2.07-9.3,3.47-6.75,4.7-6.92,7.13-8.71a27.93,27.93,0,0,1,9.87-3.81c6.65-1.15,6.65-1.15,8.36-.4.75.34.83,0,.27,5.85-.69,7.2-3.22,8.91-5.34,11.14a17.51,17.51,0,0,1-3.22,2.66,50.24,50.24,0,0,0,2.74,4.9c2.16,3.4,3,3.88,4.49,6.48s3.41,6.12,2.06,8.28c-.95,1.52-3.11,1.73-4.93,1.91a18.86,18.86,0,0,1-10.15-2C142.94,66.42,134.23,59.33,135.33,52.33Z"/>
    <path class="cls-3" d="M69.09,84.25a69.7,69.7,0,0,0,5.32,5.58,27.36,27.36,0,0,0,7,4.65,26.57,26.57,0,0,0,9.37,2.85c2.8.31,7.14-1.29,9-3.83,1-1.4,1.14-3.85,1.36-5.94a19.19,19.19,0,0,0-.32-5.85"/>
    <path class="cls-3" d="M65.49,27.34a71.26,71.26,0,0,1,4.74-6.09,27.42,27.42,0,0,1,6.45-5.32,26.38,26.38,0,0,1,9-3.78c2.75-.59,7.24.57,9.35,2.91,1.16,1.29,1.52,3.72,1.94,5.77a18.83,18.83,0,0,1,.28,5.85"/>
    <path class="cls-4" d="M138.51,52.33c0-.46.59-2.06-1.94-5.77-3.19-4.66-4.77-6-5.33-6.45-7.42-6.35-12.09-8.86-15.55-10.15-6-2.23-11.46-3.94-15.27-4.31-1.9-.18-5.76-.5-16.75,0-13,.53-21.87,1.55-25.86,2C46.91,29,43.63,30,41.21,30.94c-3.91,1.48-8.76,3.37-13,8.15a27.42,27.42,0,0,0-5.42,9.46A26,26,0,0,0,21.5,60.6l13.29,3L24.94,70a27.42,27.42,0,0,0,3.23,4.22c6.24,6.74,14.32,8.27,23.07,9.8s16,1.12,30.16.26c8.68-.53,14.91-.93,23.31-2.77a48.58,48.58,0,0,0,20.5-9.33c8.88-7.12,4.85-3.58,9.63-8.83A14.52,14.52,0,0,0,138.51,52.33Z"/>
    <g id="luski">
      <path class="cls-5" d="M73.91,47.33c2.14-.12,2.88,0,3.84,0a4.55,4.55,0,0,1,2.87,1.91,5.42,5.42,0,0,1,1,4.79,5.36,5.36,0,0,1-1,1.92,5.54,5.54,0,0,1-.95,1,4.83,4.83,0,0,1-1.92,1,8.16,8.16,0,0,1-1.92,0c-1,0-1.91,0-2.87,0H70.09A34.52,34.52,0,0,0,70.5,52a29,29,0,0,0-.42-4.65A37,37,0,0,0,73.91,47.33Z"/>
      <path class="cls-5" d="M91.29,31.69c2.13-.21,2.87-.14,3.83-.18a4.52,4.52,0,0,1,3,1.78,5.57,5.57,0,0,1,1,1.86A5.41,5.41,0,0,1,97.48,41,4.75,4.75,0,0,1,95.61,42a8.72,8.72,0,0,1-1.91.09c-1,0-1.92.09-2.87.13l-1,0L88,42.39a34.43,34.43,0,0,0,.15-5.9,31.05,31.05,0,0,0-.64-4.62C89.06,31.87,90.37,31.78,91.29,31.69Z"/>
      <path class="cls-5" d="M72.22,65.55c2.1.41,2.79.69,3.72.93A4.49,4.49,0,0,1,78.27,69a5.36,5.36,0,0,1,.47,2.09,5.46,5.46,0,0,1-2.08,4.41,5.61,5.61,0,0,1-1.16.7,5.13,5.13,0,0,1-2.1.47,9.17,9.17,0,0,1-1.86-.47c-.92-.24-1.86-.46-2.79-.69l-.93-.23L66,74.85a34.86,34.86,0,0,0,1.83-5.62,29,29,0,0,0,.71-4.6C70,65.09,71.31,65.37,72.22,65.55Z"/>
      <path class="cls-5" d="M70.68,31.67c2.06-.58,2.81-.63,3.74-.84a4.53,4.53,0,0,1,3.23,1.23A5.6,5.6,0,0,1,79,33.71a5.54,5.54,0,0,1,.63,2.8,5.51,5.51,0,0,1-1.23,3.23,5,5,0,0,1-1.66,1.36,9.56,9.56,0,0,1-1.87.42c-.94.2-1.87.42-2.81.64l-.93.21-1.87.42A35.74,35.74,0,0,0,68.38,37a29.47,29.47,0,0,0-1.44-4.44A33.68,33.68,0,0,0,70.68,31.67Z"/>
      <path class="cls-5" d="M107.29,37.26a37.6,37.6,0,0,1,3.84,0A4.54,4.54,0,0,1,114,39.13,5.41,5.41,0,0,1,115,41a5.46,5.46,0,0,1-1.88,5.76,5.09,5.09,0,0,1-1.91,1,9.89,9.89,0,0,1-1.92,0c-1,0-1.92,0-2.88,0h-2.87a34.87,34.87,0,0,0,.38-5.89,28.85,28.85,0,0,0-.44-4.64C105.05,37.35,106.37,37.31,107.29,37.26Z"/>
      <path class="cls-5" d="M107.29,57.26a37.6,37.6,0,0,1,3.84,0A4.54,4.54,0,0,1,114,59.13,5.41,5.41,0,0,1,115,61a5.46,5.46,0,0,1-1.88,5.76,5.09,5.09,0,0,1-1.91,1,9.89,9.89,0,0,1-1.92,0c-1,0-1.92,0-2.88,0h-2.87a34.87,34.87,0,0,0,.38-5.89,28.85,28.85,0,0,0-.44-4.64C105.05,57.35,106.37,57.31,107.29,57.26Z"/>
      <path class="cls-5" d="M121.29,47.26a37.6,37.6,0,0,1,3.84,0A4.54,4.54,0,0,1,128,49.13,5.41,5.41,0,0,1,129,51a5.46,5.46,0,0,1-1.88,5.76,5.09,5.09,0,0,1-1.91,1,9.89,9.89,0,0,1-1.92,0c-1,0-1.92,0-2.88,0h-2.87a34.87,34.87,0,0,0,.38-5.89,28.85,28.85,0,0,0-.44-4.64C119.05,47.35,120.37,47.31,121.29,47.26Z"/>
      <path class="cls-5" d="M91.38,62.75a37.42,37.42,0,0,1,3.83,0,4.56,4.56,0,0,1,2.89,1.89,5.49,5.49,0,0,1,0,6.71,6.07,6.07,0,0,1-1,1,5.09,5.09,0,0,1-1.91,1,9.84,9.84,0,0,1-1.92,0c-1,0-1.91,0-2.87,0H87.6A34,34,0,0,0,88,67.41a29.5,29.5,0,0,0-.45-4.64C89.14,62.84,90.45,62.8,91.38,62.75Z"/>
      <path class="cls-5" d="M93.91,47.33c2.14-.12,2.88,0,3.84,0a4.55,4.55,0,0,1,2.87,1.91,5.42,5.42,0,0,1,1,4.79,5.36,5.36,0,0,1-1,1.92,5.54,5.54,0,0,1-.95,1,4.83,4.83,0,0,1-1.92,1,8.16,8.16,0,0,1-1.92,0c-1,0-1.91,0-2.87,0H90.09A34.52,34.52,0,0,0,90.5,52a29,29,0,0,0-.42-4.65A37,37,0,0,0,93.91,47.33Z"/>
      <path class="cls-6" d="M108.26,46.94c2.14-.11,2.88,0,3.84,0A4.55,4.55,0,0,1,115,48.85a5.58,5.58,0,0,1,1,1.91,5.52,5.52,0,0,1,0,2.87,5.39,5.39,0,0,1-1,1.92,5.68,5.68,0,0,1-1,1,5.11,5.11,0,0,1-1.92,1,9.48,9.48,0,0,1-1.92,0c-1,0-1.91,0-2.87,0h-2.88a34.46,34.46,0,0,0,.41-5.89,29,29,0,0,0-.42-4.64A36.5,36.5,0,0,0,108.26,46.94Z"/>
      <path class="cls-6" d="M95.26,54.94c2.14-.11,2.88,0,3.84,0A4.55,4.55,0,0,1,102,56.85a5.58,5.58,0,0,1,1,1.91,5.52,5.52,0,0,1,0,2.87,5.39,5.39,0,0,1-1,1.92,5.68,5.68,0,0,1-1,1,5.11,5.11,0,0,1-1.92,1,9.48,9.48,0,0,1-1.92,0c-1,0-1.91,0-2.87,0H91.44a34.46,34.46,0,0,0,.41-5.89A29,29,0,0,0,91.43,55,36.5,36.5,0,0,0,95.26,54.94Z"/>
      <path class="cls-6" d="M96.26,38.94c2.14-.11,2.88,0,3.84,0A4.55,4.55,0,0,1,103,40.85a5.58,5.58,0,0,1,1,1.91,5.52,5.52,0,0,1,0,2.87,5.39,5.39,0,0,1-1,1.92,5.68,5.68,0,0,1-1,1,5.11,5.11,0,0,1-1.92,1,9.48,9.48,0,0,1-1.92,0c-1,0-1.91,0-2.87,0H92.44a34.46,34.46,0,0,0,.41-5.89A29,29,0,0,0,92.43,39,36.5,36.5,0,0,0,96.26,38.94Z"/>
      <path class="cls-6" d="M78.26,38.94c2.14-.11,2.88,0,3.84,0A4.55,4.55,0,0,1,85,40.85a5.58,5.58,0,0,1,1,1.91,5.52,5.52,0,0,1,0,2.87,5.39,5.39,0,0,1-1,1.92,5.68,5.68,0,0,1-1,1,5.11,5.11,0,0,1-1.92,1,9.48,9.48,0,0,1-1.92,0c-1,0-1.91,0-2.87,0H74.44a34.46,34.46,0,0,0,.41-5.89A29,29,0,0,0,74.43,39,36.5,36.5,0,0,0,78.26,38.94Z"/>
      <path class="cls-6" d="M78.26,56.94c2.14-.11,2.88,0,3.84,0A4.55,4.55,0,0,1,85,58.85a5.58,5.58,0,0,1,1,1.91,5.52,5.52,0,0,1,0,2.87,5.39,5.39,0,0,1-1,1.92,5.68,5.68,0,0,1-1,1,5.11,5.11,0,0,1-1.92,1,9.48,9.48,0,0,1-1.92,0c-1,0-1.91,0-2.87,0H74.44a34.46,34.46,0,0,0,.41-5.89A29,29,0,0,0,74.43,57,36.5,36.5,0,0,0,78.26,56.94Z"/>
      <path class="cls-6" d="M121.26,37.94c2.14-.11,2.88,0,3.84,0A4.55,4.55,0,0,1,128,39.85a5.58,5.58,0,0,1,1,1.91,5.52,5.52,0,0,1,0,2.87,5.39,5.39,0,0,1-1,1.92,5.68,5.68,0,0,1-1,1,5.11,5.11,0,0,1-1.92,1,9.48,9.48,0,0,1-1.92,0c-1,0-1.91,0-2.87,0h-2.88a34.46,34.46,0,0,0,.41-5.89,29,29,0,0,0-.42-4.64A36.5,36.5,0,0,0,121.26,37.94Z"/>
      <path class="cls-6" d="M121.26,56.94c2.14-.11,2.88,0,3.84,0A4.55,4.55,0,0,1,128,58.85a5.58,5.58,0,0,1,1,1.91,5.52,5.52,0,0,1,0,2.87,5.39,5.39,0,0,1-1,1.92,5.68,5.68,0,0,1-1,1,5.11,5.11,0,0,1-1.92,1,9.48,9.48,0,0,1-1.92,0c-1,0-1.91,0-2.87,0h-2.88a34.46,34.46,0,0,0,.41-5.89,29,29,0,0,0-.42-4.64A36.5,36.5,0,0,0,121.26,56.94Z"/>
    </g>
    <g id="linia">
      <path class="cls-7" d="M57,36.5a3.41,3.41,0,0,1,.5-2.5c.5-.5,1-1,2,0,1.54,1.54,2.88,15.52,3,18a33.29,33.29,0,0,1-1,10,35.34,35.34,0,0,1-2,8s-4,8-5,8c-.38,0-.83-.51-1-1a2.62,2.62,0,0,1,0-1,15.54,15.54,0,0,1,1-2,47.09,47.09,0,0,0,2-5A37.94,37.94,0,0,0,59,61.5a29.56,29.56,0,0,0,1-7C60.08,48.09,57.66,38.56,57,36.5Z"/>
    </g>
    <g id="oko">
      <ellipse class="cls-8" cx="45.52" cy="47.65" rx="4.01" ry="6.19" transform="translate(-2.18 2.19) rotate(-2.69)"/>
      <path class="cls-9" d="M46.69,52.32a5.61,5.61,0,0,0,1.61-3.78A7.55,7.55,0,0,0,47,44"/>
    </g>
  </g>
</svg>
