<svg xmlns="http://www.w3.org/2000/svg" xmlns:xlink="http://www.w3.org/1999/xlink" width="185" height="110" viewBox="0 0 185 110">
  <defs>
    <style>
      .cls-1 {
        filter: url(#AI_GaussianBlur_4);
      }

      .cls-2 {
        fill: #95b9f0;
      }

      .cls-3, .cls-8 {
        fill: #90b6f1;
      }

      .cls-4, .cls-9 {
        fill: #6098ea;
      }

      .cls-5 {
        fill: #d2dff4;
      }

      .cls-6 {
        fill: #1d1d1b;
      }

      .cls-7 {
        fill: #f2f2f2;
        opacity: 0.62;
      }

      .cls-8 {
        opacity: 0.3;
      }

      .cls-9 {
        opacity: 0.38;
      }

      .cls-10 {
        fill: #e6e6e6;
      }
    </style>
    <filter id="AI_GaussianBlur_4" name="AI_GaussianBlur_4">
      <feGaussianBlur stdDeviation="4"/>
    </filter>
  </defs>
  <g id="fish2">
    <g class="cls-1">
      <path class="cls-2" d="M137.64,60.17c.09-.61,1.09-2.57-.07-7.89-1.46-6.68-2.47-8.68-2.82-9.41-4.67-9.67-8-13.81-10.68-16.15-4.56-4-8.86-7.27-12.07-8.47-1.6-.6-4.87-1.73-14.55-3.2a185.12,185.12,0,0,0-23.07-2.16c-9.86-.27-13,.45-15.35,1.19a28,28,0,0,0-13.6,8.19,43.34,43.34,0,0,0-7.37,11.34,51.11,51.11,0,0,0-4.49,15.48l31.35,5.14-31,7.82a37.52,37.52,0,0,0,1.63,6.1c3.54,10,10.14,13.47,17.32,17.1s13.57,4.45,26.15,6c7.7.94,13.23,1.57,21,.75a38.73,38.73,0,0,0,20.44-8.35c9.72-7.62,5.23-3.75,10.85-9.71A26.19,26.19,0,0,0,137.64,60.17Z"/>
    </g>
    <g class="cls-1">
      <path class="cls-2" d="M124.11,55.5c.73-3-.42-4.38,3.14-10.44,4.32-7.36,5.63-7.43,8.36-9.22a27.44,27.44,0,0,1,10.72-3.34c7.07-.63,7.07-.63,8.78.41.75.46.88,0-.32,6.72-1.46,8.16-4.29,9.86-6.74,12.19a18.83,18.83,0,0,1-3.65,2.71c.48,1.39,1.24,3.46,2.36,5.89,1.92,4.12,2.78,4.76,4,7.88s2.94,7.36,1.3,9.69c-1.14,1.63-3.43,1.65-5.36,1.67a18.64,18.64,0,0,1-10.4-3.38C130.62,72.4,122.24,63.39,124.11,55.5Z"/>
    </g>
    <path class="cls-3" d="M114.85,22c-.42-2.05-.78-4.48-1.94-5.77-2.11-2.34-6.59-3.5-9.35-2.91A24.42,24.42,0,0,0,96,16.18c-.36-1.84-.77-3.79-1.77-4.9-2.11-2.35-6.59-3.5-9.34-2.91a26.71,26.71,0,0,0-9,3.77,27.77,27.77,0,0,0-6.45,5.33,70.92,70.92,0,0,0-4.73,6.08l22.77-.47c-1.89,2.18-3,3.92-4.12,5.39l31.79-.66A18.83,18.83,0,0,0,114.85,22Z"/>
    <path class="cls-4" d="M122.83,54.83c.62-2.69-.34-3.86,2.66-9.22,3.65-6.51,4.75-6.57,7-8.16a22.53,22.53,0,0,1,9-3c5.95-.57,5.95-.57,7.39.35.63.4.73,0-.28,5.93C147.41,48,145,49.47,143,51.53a15.44,15.44,0,0,1-3.08,2.41c.4,1.22,1,3.05,2,5.19,1.6,3.63,2.33,4.19,3.37,6.95s2.45,6.49,1.07,8.55c-1,1.45-2.89,1.46-4.51,1.48a15.06,15.06,0,0,1-8.73-3C128.27,69.74,121.24,61.8,122.83,54.83Z"/>
    <path class="cls-3" d="M114.16,85.27c-.56,2-1.08,4.43-2.32,5.64-2.26,2.2-6.8,3.07-9.51,2.3A24.67,24.67,0,0,1,95,89.83c-.48,1.81-1,3.73-2.08,4.77-2.26,2.21-6.81,3.07-9.52,2.3a26.56,26.56,0,0,1-8.77-4.35,27.16,27.16,0,0,1-6.09-5.73,70.38,70.38,0,0,1-4.33-6.37l22.69,1.94c-1.74-2.3-2.73-4.1-3.76-5.64l31.68,2.71A18.89,18.89,0,0,1,114.16,85.27Z"/>
    <path class="cls-5" d="M130.18,57.78c.08-.55.95-2.32,0-7.07-1.21-6-2.07-7.75-2.36-8.4-4-8.63-6.82-12.31-9.09-14.39-3.9-3.57-7.59-6.45-10.35-7.5-1.37-.52-4.18-1.51-12.53-2.75A153,153,0,0,0,76,15.91c-8.5-.17-11.21.5-13.25,1.18a24.47,24.47,0,0,0-11.79,7.44,39.36,39.36,0,0,0-6.44,10.2,47.59,47.59,0,0,0-4,13.9L67.5,53,40.7,60.23a34.82,34.82,0,0,0,1.36,5.45c3,8.9,8.64,12,14.81,15.19S68.54,84.75,79.38,86c6.63.78,11.39,1.31,18.15.51a33.34,33.34,0,0,0,17.69-7.62c8.43-6.9,4.53-3.41,9.43-8.78A24.42,24.42,0,0,0,130.18,57.78Z"/>
    <ellipse class="cls-6" cx="64.42" cy="34.54" rx="5.58" ry="6.03" transform="translate(20.16 92.71) rotate(-80.93)"/>
    <path class="cls-7" d="M65.85,39.07A6.61,6.61,0,0,0,68,34.85c.1-2.45-.53-3.66-.81-3.92"/>
    <g id="luski">
      <path class="cls-8" d="M82.11,44.28c1.84-.1,2.47,0,3.3,0a3.92,3.92,0,0,1,2.47,1.79,5.29,5.29,0,0,1,.82,1.79,5.43,5.43,0,0,1-.81,4.49,5.43,5.43,0,0,1-.82.9,4.25,4.25,0,0,1-1.65.9,7,7,0,0,1-1.65,0c-.82,0-1.64,0-2.46,0H78.84a35.41,35.41,0,0,0,.35-5.52,30.33,30.33,0,0,0-.37-4.35A29.14,29.14,0,0,0,82.11,44.28Z"/>
      <path class="cls-8" d="M100.16,29c1.83-.19,2.46-.12,3.29-.16A3.87,3.87,0,0,1,106,30.53a5.41,5.41,0,0,1,.89,1.75,5.5,5.5,0,0,1-.66,4.53,4.63,4.63,0,0,1-.79.93,4.3,4.3,0,0,1-1.61,1,7.34,7.34,0,0,1-1.64.07c-.83,0-1.65.08-2.47.12l-.82,0L97.23,39a34.63,34.63,0,0,0,.16-5.53,30.47,30.47,0,0,0-.52-4.33A30.13,30.13,0,0,0,100.16,29Z"/>
      <path class="cls-9" d="M111.14,37.41c1.84,0,2.47.1,3.29.13a3.79,3.79,0,0,1,2.34,1.9,5.16,5.16,0,0,1,.7,1.82,5.65,5.65,0,0,1-.19,2.69,5.52,5.52,0,0,1-1,1.76,5.14,5.14,0,0,1-.88.86,4.24,4.24,0,0,1-1.71.83,6.82,6.82,0,0,1-1.64-.06c-.82-.05-1.64-.07-2.46-.1l-.83,0-1.64-.06a36.24,36.24,0,0,0,.74-5.5,28.88,28.88,0,0,0-.06-4.36A27.91,27.91,0,0,0,111.14,37.41Z"/>
      <path class="cls-9" d="M110.77,53.8a30,30,0,0,1,3.29,0,3.86,3.86,0,0,1,2.48,1.77,5.35,5.35,0,0,1,.83,1.79,5.63,5.63,0,0,1,0,2.7,5.41,5.41,0,0,1-.82,1.8,4.88,4.88,0,0,1-.81.9,4.24,4.24,0,0,1-1.65.91,7.19,7.19,0,0,1-1.64,0c-.82,0-1.65,0-2.47,0h-2.47a35,35,0,0,0,.33-5.52,29.5,29.5,0,0,0-.38-4.35A31.25,31.25,0,0,0,110.77,53.8Z"/>
      <path class="cls-8" d="M120.73,45.23c1.83-.11,2.46,0,3.29,0A3.94,3.94,0,0,1,126.5,47a5.35,5.35,0,0,1,.83,1.79,5.54,5.54,0,0,1,0,2.7,5.07,5.07,0,0,1-1.63,2.7,4.1,4.1,0,0,1-1.64.91,8.14,8.14,0,0,1-1.65,0c-.82,0-1.64,0-2.47,0h-2.46a36.24,36.24,0,0,0,.33-5.52,30.29,30.29,0,0,0-.39-4.35A28.5,28.5,0,0,0,120.73,45.23Z"/>
      <path class="cls-8" d="M100.53,61.31a31.94,31.94,0,0,1,3.29.12,3.73,3.73,0,0,1,2.36,1.88,5.15,5.15,0,0,1,.71,1.82,5.58,5.58,0,0,1-1.1,4.45,4.79,4.79,0,0,1-.88.87,4.3,4.3,0,0,1-1.7.84,7.56,7.56,0,0,1-1.64-.06c-.82,0-1.64-.06-2.47-.09l-.82,0-1.64,0a36.77,36.77,0,0,0,.7-5.5,30.36,30.36,0,0,0-.1-4.36A29.46,29.46,0,0,0,100.53,61.31Z"/>
      <path class="cls-9" d="M100.31,45.3a31.28,31.28,0,0,1,3.3,0,3.85,3.85,0,0,1,2.47,1.79,5.29,5.29,0,0,1,.82,1.79,5.46,5.46,0,0,1-.81,4.49,5.43,5.43,0,0,1-.82.9,4.25,4.25,0,0,1-1.65.9,7,7,0,0,1-1.65,0c-.82,0-1.64,0-2.46,0H97a35.48,35.48,0,0,0,.35-5.52A30.33,30.33,0,0,0,97,45.31,29.14,29.14,0,0,0,100.31,45.3Z"/>
      <path class="cls-9" d="M91,36.17a32,32,0,0,1,3.29,0A3.9,3.9,0,0,1,96.77,38a5.29,5.29,0,0,1,.83,1.8,5.66,5.66,0,0,1,0,2.69,5.29,5.29,0,0,1-.82,1.79,4.74,4.74,0,0,1-.82.9,4.12,4.12,0,0,1-1.65.9,7.19,7.19,0,0,1-1.64,0c-.83,0-1.65,0-2.47,0H87.73a35.35,35.35,0,0,0,.35-5.52,28.84,28.84,0,0,0-.37-4.35A29.75,29.75,0,0,0,91,36.17Z"/>
      <path class="cls-9" d="M91,53.21c1.83-.1,2.47,0,3.29,0A3.9,3.9,0,0,1,96.77,55a5.35,5.35,0,0,1,.83,1.79,5.68,5.68,0,0,1,0,2.69,5.32,5.32,0,0,1-.82,1.8,5.43,5.43,0,0,1-.82.9,4.25,4.25,0,0,1-1.65.9,6.93,6.93,0,0,1-1.64,0c-.83,0-1.65,0-2.47,0H87.73a35.41,35.41,0,0,0,.35-5.52,28.76,28.76,0,0,0-.37-4.35A29.32,29.32,0,0,0,91,53.21Z"/>
      <path class="cls-9" d="M81.79,26.05a32,32,0,0,1,3.29,0,3.91,3.91,0,0,1,2.48,1.79,5.5,5.5,0,0,1,.82,4.49,5.12,5.12,0,0,1-.82,1.8,4.38,4.38,0,0,1-.82.89,3.88,3.88,0,0,1-1.64.9,6.62,6.62,0,0,1-1.65,0c-.82,0-1.64,0-2.47,0H78.51a34.51,34.51,0,0,0,.36-5.52,30.51,30.51,0,0,0-.37-4.36A27.29,27.29,0,0,0,81.79,26.05Z"/>
      <path class="cls-9" d="M82.07,65.09c1.84,0,2.46.08,3.29.1a3.85,3.85,0,0,1,2.38,1.86,5.4,5.4,0,0,1,.74,1.82,5.53,5.53,0,0,1-1,4.46,4.67,4.67,0,0,1-.87.87,4.11,4.11,0,0,1-1.68.85,6.75,6.75,0,0,1-1.65,0c-.82,0-1.64-.05-2.47-.07l-.82,0-1.64,0a35.75,35.75,0,0,0,.62-5.5A29.4,29.4,0,0,0,78.78,65,26.4,26.4,0,0,0,82.07,65.09Z"/>
    </g>
    <path class="cls-10" d="M73,25a8.59,8.59,0,0,1,.32-3.25c.31-.65.63-1.3,1.26,0,1,2,1.81,20.2,1.88,23.42a87.68,87.68,0,0,1-.63,13,90.81,90.81,0,0,1-1.25,10.41S72.07,79,71.44,79c-.24,0-.52-.66-.63-1.3a7.54,7.54,0,0,1,0-1.3c0-.26.61-2.5.63-2.6.63-2.61,1.26-6.51,1.26-6.51a89.44,89.44,0,0,0,1.57-9.76,75.52,75.52,0,0,0,.63-9.11A193.4,193.4,0,0,0,73,25Z"/>
  </g>
</svg>
