<svg xmlns="http://www.w3.org/2000/svg" xmlns:xlink="http://www.w3.org/1999/xlink" width="95" height="85" viewBox="0 0 95 85">
  <defs>
    <style>
      .cls-1 {
        filter: url(#AI_GaussianBlur_4);
      }

      .cls-2 {
        fill: #f4b0b0;
      }

      .cls-3, .cls-4 {
        fill: #fff;
      }

      .cls-3 {
        opacity: 0.48;
      }

      .cls-4 {
        opacity: 0.13;
      }
    </style>
    <filter id="AI_GaussianBlur_4" name="AI_GaussianBlur_4">
      <feGaussianBlur stdDeviation="4"/>
    </filter>
  </defs>
  <g id="heart">
    <g>
      <g>
        <g class="cls-1">
          <path class="cls-2" d="M86.86,28.1C86.84,16.69,78,7.46,67.1,7.48c-10.11,0-18.44,8-19.57,18.25a.1.1,0,0,1-.2,0C46.19,15.46,37.85,7.48,27.73,7.48,16.83,7.48,8,16.72,8,28.12,6.09,45,35.33,68.76,44.65,75.88c1.76,1.34,3.07,2.15,5.34.2C59,69.21,88.8,45.09,86.86,28.1Z"/>
        </g>
        <path class="cls-2" d="M84.69,28.71c0-11.07-8.6-20-19.18-20-9.82,0-17.9,7.76-19,17.72a.1.1,0,0,1-.2,0c-1.1-10-9.2-17.72-19-17.72-10.58,0-19.16,9-19.16,20C6.28,45.08,34.67,68.19,43.72,75.1c1.7,1.31,3,2.09,5.18.2C57.64,68.63,86.58,45.21,84.69,28.71Z"/>
      </g>
      <path class="cls-3" d="M62.51,13.15c-.87-.2-1.76-1,.94-1.89,1.67-.57,4.7-.25,7.12.5a17.87,17.87,0,0,1,6,3.21A15.56,15.56,0,0,1,81,21c.66,1.65.68,6.22.77,7.46a1,1,0,0,1-.3.73,1.08,1.08,0,0,1-1.76-.48l-.19-1.92a11.06,11.06,0,0,0-2.23-5.73,38.88,38.88,0,0,0-2.77-3.31l-.81-.72a15,15,0,0,0-5.15-2.88Z"/>
      <path class="cls-4" d="M63.06,15.77c-.64-.14-.28-1.08.38-1.11a15.23,15.23,0,0,1,4.73.55,13.89,13.89,0,0,1,4.51,2.13,10.88,10.88,0,0,1,3.38,4,9.2,9.2,0,0,1,.86,2.94c.06.54-.67.85-1.17.49L72.9,21a8.8,8.8,0,0,0-1.7-1.75l-.61-.47a11.67,11.67,0,0,0-3.87-1.91Z"/>
    </g>
  </g>
</svg>
