<svg xmlns="http://www.w3.org/2000/svg" xmlns:xlink="http://www.w3.org/1999/xlink" width="450" height="450" viewBox="0 0 450 450">
  <defs>
    <style>
      .cls-1 {
        fill: #1d1d1b;
      }

      .cls-2 {
        fill: #fff;
      }

      .cls-3 {
        fill: #f2f2f2;
        opacity: 0.62;
      }

      .cls-4 {
        opacity: 0.67;
      }

      .cls-5 {
        fill: #d9d9d9;
      }

      .cls-6 {
        fill: url(#radial-gradient);
      }

      .cls-7 {
        fill: url(#radial-gradient-2);
      }
    </style>
    <radialGradient id="radial-gradient" cx="166.7" cy="153.51" r="8.16" gradientTransform="translate(343.84 -76.29) rotate(83.95)" gradientUnits="userSpaceOnUse">
      <stop offset="0.08" stop-color="#f5e1e0"/>
      <stop offset="0.4" stop-color="#f7e6e5"/>
      <stop offset="0.77" stop-color="#fbf3f3"/>
      <stop offset="1" stop-color="#fff"/>
    </radialGradient>
    <radialGradient id="radial-gradient-2" cx="243.49" cy="151.51" r="8.16" gradientTransform="translate(410.56 -152.66) rotate(83.95)" xlink:href="#radial-gradient"/>
  </defs>
  <g id="won_game">
    <g id="bear">
      <ellipse class="cls-1" cx="224.13" cy="77.39" rx="12.34" ry="8.3" transform="translate(118.61 289.73) rotate(-82.63)"/>
    </g>
  </g>
  <g id="happy_bear">
    <ellipse class="cls-2" cx="302.44" cy="42.58" rx="16.01" ry="11.84" transform="translate(39.74 198.37) rotate(-38.68)"/>
    <ellipse class="cls-1" cx="302.98" cy="44.37" rx="10.23" ry="6.91" transform="translate(46.18 211.16) rotate(-41.34)"/>
    <ellipse class="cls-2" cx="179.27" cy="37.35" rx="11.84" ry="16.01" transform="translate(110.74 207.16) rotate(-79.79)"/>
    <ellipse class="cls-1" cx="175.87" cy="40.77" rx="6.37" ry="9.65" transform="translate(54.57 174.49) rotate(-60.84)"/>
    <path class="cls-2" d="M192.54,153s-22.55-7.27-24.65-45.79c.06-7,1.14-20.16,1.14-20.16s1.79-14.25,3-19.75,2.07-9.1,2.07-9.1l1.46-6.83a21.31,21.31,0,0,1,3.62-7,17.11,17.11,0,0,1,6.32-4.84s1.75-1.87,7.51-4.61,26.37-7.28,50.24-6,38,3.86,48.69,7.74,16.51,29.45,16.51,29.45.31,11.35-.49,26.4-12.82,59-30.61,61.12C217.64,160.87,192.54,153,192.54,153Z"/>
    <ellipse class="cls-1" cx="277.36" cy="76.03" rx="8.74" ry="5.87" transform="translate(172.51 343.82) rotate(-83.95)"/>
    <ellipse class="cls-1" cx="224.18" cy="76.39" rx="9.2" ry="6.18" transform="translate(124.58 291.27) rotate(-83.95)"/>
    <ellipse class="cls-1" cx="249.05" cy="110.84" rx="11.46" ry="6.75" transform="translate(-1.6 3.66) rotate(-0.84)"/>
    <path class="cls-3" d="M278.38,82.82a6.69,6.69,0,0,0,3-3.82,8.89,8.89,0,0,0-.09-5.66"/>
    <path class="cls-3" d="M225.3,83.19a6.69,6.69,0,0,0,3-3.82,9,9,0,0,0-.08-5.66"/>
    <g class="cls-4">
      <path class="cls-5" d="M192.35,119.52a31,31,0,0,0,8,21.27,32.2,32.2,0,0,0,19.43,10.12,1.94,1.94,0,0,0,2.31-1.31,1.9,1.9,0,0,0-1.31-2.31,29.13,29.13,0,0,1-17.52-8.86,27.12,27.12,0,0,1-7.12-18.91c.05-2.41-3.7-2.41-3.75,0Z"/>
    </g>
    <path class="cls-1" d="M227.91,120.17c1.07,4.9,3.93,9.09,8.58,11.16a25.8,25.8,0,0,0,16.83.52c.75-.26.43-1.47-.33-1.2-6.35,2.18-15.13,1.74-20.05-3.25a15.13,15.13,0,0,1-3.83-7.56c-.17-.78-1.38-.45-1.2.33Z"/>
    <ellipse class="cls-6" cx="208.75" cy="105.67" rx="8.93" ry="7.3" transform="translate(77.17 299.14) rotate(-82.63)"/>
    <ellipse class="cls-7" cx="285.56" cy="105.44" rx="8.93" ry="7.3" transform="translate(144.35 375.11) rotate(-82.63)"/>
  </g>
</svg>
