<svg xmlns="http://www.w3.org/2000/svg" xmlns:xlink="http://www.w3.org/1999/xlink" width="100" height="100" viewBox="0 0 100 100">
  <defs>
    <style>
      .cls-1 {
        opacity: 0.79;
        filter: url(#AI_GaussianBlur_4);
      }

      .cls-2 {
        fill: #fff;
      }

      .cls-3 {
        fill: #f4b0b0;
      }
    </style>
    <filter id="AI_GaussianBlur_4" name="AI_GaussianBlur_4">
      <feGaussianBlur stdDeviation="4"/>
    </filter>
  </defs>
  <g id="pause">
    <g id="shadow-2" data-name="shadow" class="cls-1">
      <circle class="cls-2" cx="49.8" cy="49.8" r="39"/>
    </g>
    <circle id="kolo" class="cls-2" cx="41.91" cy="50.26" r="38.54"/>
    <path class="cls-3" d="M47.62,48.86c0-5.74,0-11.48,0-17.22a4.63,4.63,0,1,1,9.25-.09c0,2.58,0,5.17,0,7.75V56.53c0,3.27,0,6.55,0,9.82a4.61,4.61,0,0,1-9.12,1.06,35.78,35.78,0,0,1-.15-4.27c0-2.39,0-4.78,0-7.17Z"/>
    <path class="cls-3" d="M29.62,49.09c0-5.74,0-11.49,0-17.23a4.64,4.64,0,1,1,9.26-.08c0,2.58,0,5.16,0,7.74V56.75c0,3.28,0,6.55,0,9.83a4.58,4.58,0,0,1-4.1,4.73,4.52,4.52,0,0,1-5-3.68,33.57,33.57,0,0,1-.15-4.26c0-2.39,0-4.78,0-7.17Z"/>
  </g>
</svg>
