<svg xmlns="http://www.w3.org/2000/svg" xmlns:xlink="http://www.w3.org/1999/xlink" width="185" height="110" viewBox="0 0 185 110">
  <defs>
    <style>
      .cls-1, .cls-3, .cls-5, .cls-6 {
        fill: #fff;
      }

      .cls-1, .cls-2 {
        filter: url(#AI_GaussianBlur_4);
      }

      .cls-4 {
        fill: #f4b0b0;
      }

      .cls-5 {
        opacity: 0.13;
      }

      .cls-6 {
        opacity: 0.48;
      }
    </style>
    <filter id="AI_GaussianBlur_4" name="AI_GaussianBlur_4">
      <feGaussianBlur stdDeviation="4"/>
    </filter>
  </defs>
  <g id="fish_counter">
    <path class="cls-1" d="M179.44,65.46c-1.89-3.24-3-3.81-5.79-8a64.56,64.56,0,0,1-3.56-6.08,21.54,21.54,0,0,0,3.9-3.47c2.55-2.89,5.64-5.14,6.24-14.24.5-7.46.41-7-.54-7.38-2.14-.89-2.14-.89-10.34.79a34.35,34.35,0,0,0-12.1,5.15c-2.95,2.34-4.47,2.6-8.54,11.24a23,23,0,0,0-2.1,6.17,21.44,21.44,0,0,0-1.05-1.91c-3.74-6-5.65-7.75-6.32-8.37C130.33,31,124.66,27.6,120.42,25.81c-7.29-3.09-14-5.48-18.73-6.13-1.38-.18-3.63-.46-8-.64a23.72,23.72,0,0,0-.61-5.72c-.59-2.58-1.12-5.63-2.6-7.22-2.7-2.89-8.29-4.19-11.69-3.35A32.78,32.78,0,0,0,67.7,7.83a34.23,34.23,0,0,0-7.81,6.94,56,56,0,0,0-3.71,4.95c-3.16.21-5.64.42-7.37.58-13.56,1.22-17.67,2.36-20.7,3.41-4.91,1.68-11,3.86-16.49,9.69A34.91,34.91,0,0,0,4.49,45.1,33.29,33.29,0,0,0,2.38,60.25l16.33,4.41L6.22,72.32A34.48,34.48,0,0,0,10,77.78c7.44,8.79,17.38,11.08,28.15,13.4a86.49,86.49,0,0,0,16.55,1.91,60.17,60.17,0,0,0,5.5,5.48A33.85,33.85,0,0,0,69,104.2a32.52,32.52,0,0,0,11.7,3.27c3.48.3,8.81-1.87,11-5.15,1.22-1.8,1.28-4.89,1.48-7.54a23.7,23.7,0,0,0,0-2.78c3.58-.34,7.23-.83,11.29-1.58,9.69-1.79,18.29-5.17,25.81-10.86,11.31-8.59,6.17-4.3,12.32-10.71a18.07,18.07,0,0,0,4.48-8.23c2.53,6.82,10.69,12.84,16.43,15.57a23.05,23.05,0,0,0,12.64,2.22c2.24-.29,4.92-.63,6.05-2.58C183.87,73.06,181.35,68.73,179.44,65.46ZM37.23,55.72c-3.42.1-6.32-4.34-6.47-9.92s2.51-10.18,5.93-10.27,6.32,4.35,6.47,9.92S40.65,55.63,37.23,55.72Z"/>
    <g class="cls-2">
      <path class="cls-3" d="M137.06,54.48c1.51-1.34,2.36.55,1.09,2.11A73.82,73.82,0,0,1,127.76,67a61.49,61.49,0,0,1-12.64,8.13c-6.65,3.08-11.43,3.41-13.55,3.42a16.21,16.21,0,0,1-6.67-1.26c-1-.46-.07-2.5,1.52-3.27l12.19-2.35a30.18,30.18,0,0,0,6.34-2l2-.91a52,52,0,0,0,11-6.87Z"/>
    </g>
    <g class="cls-2">
      <path class="cls-3" d="M136.45,60c1.14-.93,2.78-1.6.49,2.12-1.41,2.29-5.08,5.74-8.45,8.24a44.79,44.79,0,0,1-9.44,5.49c-4.93,2-8.75,3.18-10.14,3.73-3.06,1.22-7.09,1.57-8.21,1-.25-.12-5.33-.83-5.66-1q-4-1.8-1.59-2.9a5,5,0,0,1,2.62-.35l4.23.47c2,.87,7.92-1.39,10.69-2a77.94,77.94,0,0,0,8.12-2.92l1.5-.59a37.44,37.44,0,0,0,8-4.49l.39-.3Z"/>
    </g>
    <path class="cls-4" d="M172.81,64.73c-1.76-3-2.79-3.48-5.39-7.34a60.73,60.73,0,0,1-3.32-5.56,19.84,19.84,0,0,0,3.64-3.17c2.37-2.64,5.24-4.69,5.81-13,.46-6.81.37-6.38-.51-6.74-2-.82-2-.82-9.62.72a32.11,32.11,0,0,0-11.26,4.71c-2.75,2.14-4.17,2.37-7.95,10.26a20.31,20.31,0,0,0-2,5.65c-.27-.53-.59-1.11-1-1.75-3.48-5.51-5.25-7.08-5.88-7.65-8.29-7.63-13.57-10.71-17.51-12.35-6.79-2.82-13-5-17.44-5.59-1.28-.17-3.37-.42-7.46-.59a22.06,22.06,0,0,0-.57-5.23c-.55-2.36-1-5.14-2.43-6.59-2.51-2.64-7.71-3.84-10.87-3.06a30.75,30.75,0,0,0-10.3,4.63,31.84,31.84,0,0,0-7.27,6.35,50.87,50.87,0,0,0-3.45,4.52c-2.94.19-5.25.39-6.86.53C38.61,24.59,34.79,25.63,32,26.58c-4.57,1.55-10.25,3.53-15.34,8.86A31.87,31.87,0,0,0,10,46.14,29.88,29.88,0,0,0,8,60l15.2,4L11.59,71a31.46,31.46,0,0,0,3.56,5c6.92,8,16.17,10.12,26.2,12.25A82.71,82.71,0,0,0,56.75,90a57.48,57.48,0,0,0,5.11,5A31.5,31.5,0,0,0,70,100.14a30.43,30.43,0,0,0,10.89,3c3.24.27,8.2-1.71,10.27-4.71,1.14-1.64,1.2-4.47,1.38-6.89a21.79,21.79,0,0,0,0-2.54c3.33-.31,6.73-.76,10.51-1.45,9-1.63,17-4.71,24-9.92,10.52-7.84,5.74-3.93,11.47-9.78a16.55,16.55,0,0,0,4.17-7.52c2.35,6.22,9.94,11.73,15.28,14.22a21.77,21.77,0,0,0,11.77,2c2.09-.26,4.58-.57,5.63-2.35C176.93,71.68,174.59,67.73,172.81,64.73Z"/>
    <path class="cls-5" d="M136.64,58.89c1-1.07,1.75.19,1,1.4a53.39,53.39,0,0,1-6.63,8.2,44.84,44.84,0,0,1-8.42,6.79,24,24,0,0,1-9.47,3.54,11.93,11.93,0,0,1-4.9-.34c-.78-.23-.26-1.76.83-2.43l8.57-2.68a21.33,21.33,0,0,0,4.39-2l1.39-.81a37.69,37.69,0,0,0,7.33-5.76Z"/>
    <path class="cls-6" d="M137.38,60.23c.85-.89,2.15-1.64.66,1.7-.92,2.06-3.61,5.33-6.15,7.79a38.08,38.08,0,0,1-7.29,5.64c-3.9,2.25-7,3.66-8.09,4.28-2.43,1.36-5.77,2.13-6.78,1.8-.22-.07-4.57-.06-4.86-.14-2.39-.68-3-1.41-1.68-2.21a4.36,4.36,0,0,1,2.16-.59l3.61-.11c1.76.48,6.5-2.09,8.74-3a70,70,0,0,0,6.49-3.36l1.19-.67a32.27,32.27,0,0,0,6.19-4.64l.29-.3Z"/>
  </g>
</svg>
