<svg xmlns="http://www.w3.org/2000/svg" xmlns:xlink="http://www.w3.org/1999/xlink" width="100" height="100" viewBox="0 0 100 100">
  <defs>
    <style>
      .cls-1 {
        opacity: 0.79;
        filter: url(#AI_GaussianBlur_4);
      }

      .cls-2 {
        fill: #fff;
      }

      .cls-3 {
        fill: #f4b0b0;
      }
    </style>
    <filter id="AI_GaussianBlur_4" name="AI_GaussianBlur_4">
      <feGaussianBlur stdDeviation="4"/>
    </filter>
  </defs>
  <g id="question_mark">
    <g id="shadow" class="cls-1">
      <circle class="cls-2" cx="49.8" cy="49.8" r="39"/>
    </g>
    <circle id="kolo" class="cls-2" cx="41.91" cy="50.26" r="38.54"/>
    <path class="cls-3" d="M43.79,66.22a4.37,4.37,0,1,1-4.37-4.36A4.38,4.38,0,0,1,43.79,66.22Z"/>
    <path class="cls-3" d="M40.26,25.8a18.91,18.91,0,0,1,8.42,2.08,10.93,10.93,0,0,1,5.71,7.21A11.42,11.42,0,0,1,52,45.79a27.21,27.21,0,0,1-4.24,3.87c-.8.63-1.59,1.26-2.37,1.9a5.77,5.77,0,0,0-1.8,2.66c-.2.58-.41,1.15-.64,1.72a3.22,3.22,0,0,1-2.79,2.17,3.61,3.61,0,0,1-3.57-1.38,4.94,4.94,0,0,1-.89-3.42,8,8,0,0,1,1.85-4.51,21.35,21.35,0,0,1,3.08-3,30.09,30.09,0,0,0,3.58-3.29,6.24,6.24,0,0,0,1.57-3.1c.36-2.39-.45-5.48-4.05-6.14a8.44,8.44,0,0,0-2.88,0A5.12,5.12,0,0,0,35,36.43c-.31.66-.59,1.35-.91,2a12.17,12.17,0,0,1-.83,1.5,4,4,0,0,1-6.08.2,3.92,3.92,0,0,1-.83-2.47,9.69,9.69,0,0,1,2.17-6.2,14.21,14.21,0,0,1,8.88-5.35C38.36,25.94,39.31,25.9,40.26,25.8Z"/>
  </g>
</svg>
