<svg xmlns="http://www.w3.org/2000/svg" width="185" height="110" viewBox="0 0 185 110">
  <defs>
    <style>
      .cls-1 {
        fill: #fcc097;
      }

      .cls-2 {
        fill: #afa39e;
      }

      .cls-3 {
        fill: #66534b;
      }

      .cls-4 {
        fill: #877267;
      }

      .cls-5 {
        fill: #232323;
      }

      .cls-6 {
        opacity: 0.18;
      }

      .cls-7 {
        opacity: 0.58;
      }

      .cls-8 {
        opacity: 0.62;
      }

      .cls-9 {
        opacity: 0.3;
      }

      .cls-10 {
        opacity: 0.36;
      }

      .cls-11 {
        fill: #efe8e6;
        opacity: 0.11;
      }
    </style>
  </defs>
  <g id="shoe">
    <g>
      <path class="cls-1" d="M95,14.73c-1.19,1-.14,2.44-1,8.58a54,54,0,0,1-1.92,8.26A46.29,46.29,0,0,1,88,42a61,61,0,0,1-7.21,9.69C79.66,53.11,78.66,54.23,78,55l4.31,4.19a30.36,30.36,0,0,0,6.32-3.38c5.25-3.68,8.13-8.24,10.37-11.88,2.94-4.76,3-6.35,6.1-10.41a22.44,22.44,0,0,1,5.33-5.39c2.33-1.6,3.3-1.52,3.57-2.37C115.13,22,98.83,11.55,95,14.73Z"/>
      <path class="cls-1" d="M106.06,30.88c1.35.62,3.37,1.5,5.88,2.39a59.52,59.52,0,0,0,23.43,3.58c5.63-.33,9.41-.62,11.46-3.43,1.71-2.34,1.8-5.91.71-8.63-4.76-11.88-33.93-12.39-48.3-11.21-1.38.12-2.51.24-3.23.32A19.26,19.26,0,0,1,105.42,21c1.11,1.68,2.9,4.37,2.08,7.3A6.34,6.34,0,0,1,106.06,30.88Z"/>
      <path class="cls-1" d="M105.85,28c-1.58,2.15-1,3-4.65,9.61-2.83,5.12-4.51,8.07-7.84,10.92-2.38,2-2.72,1.53-6.91,4.85-2.42,1.91-3.17,2.76-4.69,2.9-2,.18-3-1-6.29-2.85-2.2-1.24-1.81-.74-6.84-3-8.75-4-8.49-4.85-11.24-5.22a15.69,15.69,0,0,0-9.94,2.25c-4.56,2.82-6.18,7.21-7.19,9.93s-2.2,5.94-1.28,9.59c.66,2.66,2.52,5.74,9.06,9.63,4,2.37,11.9,6.34,26.43,7.89a104.84,104.84,0,0,0,24.69,0c4.83-.61,11.78-1.85,18.92-1.8,5.24,0,10.42.67,10.42.67,1.75.21,3.23.44,4.35.63a60.92,60.92,0,0,0,3.28-14.36,72.27,72.27,0,0,0,.09-13.07c-.22-2.61-.49-4,0-6.08.67-2.71,2.05-4.25,4.88-7.71,1.53-1.86,3.81-4.69,6.61-8.3a9.78,9.78,0,0,0-.81-4.56C141.93,18.93,113.59,17.41,105.85,28Z"/>
      <path class="cls-1" d="M106.56,86.74c1.82,2.28,4.44,5.85,8.38,11.51,5-5,6.58-10.39,4.8-12.61-1.2-1.5-4-1.68-4.87-1.73a10.17,10.17,0,0,0-5.65,1.34c-1.42-.59-3.32-1.26-3.71-.71S106.16,86.24,106.56,86.74Z"/>
      <path class="cls-1" d="M112.77,80.42a34.85,34.85,0,0,1,9.15.82c1.82.44,4.77,1.35,7.51,1.15l2.82-.21,2.29-1.32c-1.56,2.62-2.72,4.83-3.49,6.37,0,0-1,1.94-4.08,8.91L125.64,99,115,98l3.68-11.18a12.09,12.09,0,0,0-4.6-1.64c-2.77-.36-4.28.52-9.2,1.9a62.92,62.92,0,0,1-8.94,2,75.55,75.55,0,0,1-8.09.47c-6.85.24-10.27.36-11.08.32A51.4,51.4,0,0,1,64,87.41a70.47,70.47,0,0,1-15.56-6.76C44,78.17,41.25,76.08,38.94,73a22.71,22.71,0,0,1-1.58-2.39c0-6,.53-9.09,1.46-9.23s1.9,1.9,3.32,6.06a30.78,30.78,0,0,0,3.91,4.44c3.37,3.14,6.59,4.67,10.48,6.47a64,64,0,0,0,10.82,3.85,68.79,68.79,0,0,0,22.74,2c2.14-.19,4.55-.64,9.38-1.53C108.46,81,109.14,80.44,112.77,80.42Z"/>
      <g id="sznurowki">
        <path class="cls-1" d="M105.06,53.3c.85-.77.71-1.93.89-3.34a26.43,26.43,0,0,1,1.63-4.59c2-4.88,2.49-4.82,2.68-6.67,0-.46,0,0-.45-4.72-.21-2.41-.28-3.54-1.18-4.38a4.64,4.64,0,0,0-1.8-1,6.74,6.74,0,0,0-2.62-.32c-2,.09-3.61-.7-6.86-2.14a31.69,31.69,0,0,1-3.59-1.89c-.26,1-.52,2.05-.79,3.07a22.47,22.47,0,0,0,3.59,1.89,15.4,15.4,0,0,0,4.7,1.36c2.38.24,3.07-.43,4.17.27a4.6,4.6,0,0,1,1.66,3,11.11,11.11,0,0,1-.38,5.35,27,27,0,0,1-3.14,7.1,10.48,10.48,0,0,0-1.7,3.06,8.54,8.54,0,0,0-.17,3.9l-.11.54s-.21,1-.7,3.43l1.63.58c-.33-2.26.16-3.24.71-3.71S104.41,53.89,105.06,53.3Z"/>
        <path class="cls-1" d="M104.52,35.14c-.74-.24-1.23.33-2.37.68a7.24,7.24,0,0,1-4.71-.46c-1.14-.44-3-1.16-3.85-2.89-.57-1.21-.33-2.27-.94-2.47s-1.23.42-1.57,1a3.24,3.24,0,0,0,0,2.72,6.31,6.31,0,0,0,2.57,3,11.9,11.9,0,0,0,5,2.1c2.65.43,6.71.18,7.2-1.4A2.12,2.12,0,0,0,104.52,35.14Z"/>
        <path class="cls-1" d="M88.27,39.71a1.61,1.61,0,0,0-.84,1.52c.09.49.61.82,2,1.32,2.82,1,3.13.54,4.42,1.27a14.46,14.46,0,0,1,3,2.6c.58.64.91,1.12,1.43,1.12a1.92,1.92,0,0,0,1.58-1.88c-.08-1-1.52-1.32-4.48-2.81C91.05,40.67,89.56,39,88.27,39.71Z"/>
        <path class="cls-1" d="M94.68,55.09c-1.36-.62-1-2-2.38-3.59a34.2,34.2,0,0,0-4.48-2.81c-1.77-1-2.36-1.38-2.59-2.15-.33-1.07.19-2.49,1-2.7s1.19.89,3.13,2.33,2.26,1,4,2.36a12.28,12.28,0,0,1,2.84,3.14c.71,1.13,1.5,2.39,1,3.11S95.57,55.49,94.68,55.09Z"/>
        <path class="cls-1" d="M83.73,49.06c-1.22.16-2.45,1-2.4,1.58s1.56.45,3.06,1.7c.88.73.53.92,2.2,3.22,1.36,1.87,1.52,1.64,2.3,2.95.6,1,.78,1.62,1.24,1.66.63,0,1.33-1.07,1.58-1.87C92.78,54.75,87.64,48.52,83.73,49.06Z"/>
        <path class="cls-1" d="M91.24,32.24c-1,1.31-1.33,1.36-2.51,2.76-1.46,1.74-1.34,2-2.14,2.59-.6.41-1,.44-3.65.83-4.08.6-4.6.72-5.28,1.16-1.17.76-1.46,1.56-2,1.41-.76-.19-1.33-1.92-.75-3s2-1.23,4.2-1.54,2.51,0,3.82-.47a8.51,8.51,0,0,0,2.76-1.76c2-1.68,1.82-2.53,3.44-3.65s3.4-1.57,3.74-1.11S92.24,31,91.24,32.24Z"/>
      </g>
      <path class="cls-1" d="M46.17,57.41a2.22,2.22,0,0,0,1.57-.27c1.92-1.15,7.78-4.31,13.44-3.84,4.31.35,4.48-.61,4-1.39a2.14,2.14,0,0,0-1.57-1c-2.31-.29-7-2.6-13.39.52C44.33,54.34,44.53,57.09,46.17,57.41Z"/>
      <path class="cls-1" d="M127.13,64.85A3,3,0,0,0,124,66.12c-1.37,1.31-.1,2.37-1.17,3-.87.54-.37,1.68,0,2.37s.21,1.6,2.36,1.63c2.6,0,2.13,2.25,3.17,1.66,3.17-1.8-.3-3.15,1.16-4.32,1.68-1.35,1.47-2,.86-2.84C128.65,65.38,128.81,65.27,127.13,64.85Z"/>
      <path class="cls-1" d="M114.44,42.65a1.79,1.79,0,0,0-1.91.52c-.79.62,0,1.22-.59,1.51s-.16.84.08,1.21.2.84,1.54,1c1.62.13,1.42,1.24,2,1,1.89-.79-.32-1.64.53-2.18s.83-1,.42-1.42C115.4,43,115.5,42.94,114.44,42.65Z"/>
      <path class="cls-1" d="M115.68,51.3c-1.1-.62-2.14.36-2.56.63-1.37.89-.87,1.91-1.82,2.3-.77.33-.82,1.32-.83,1.92s-.41,1.33,1,1.64c1.73.36.66,2.1,1.56,1.75,2.75-1,.88-2.6,2.26-3.36,1.6-.88,1.69-1.45,1.55-2.2C116.52,51.93,116.67,51.86,115.68,51.3Z"/>
      <path class="cls-1" d="M52.61,60.66a3.16,3.16,0,0,0,1,3.46c1.19,1.53,2.39.18,2.94,1.36.46,1,1.66.46,2.39.11s1.65-.18,1.89-2.53c.3-2.82,2.49-2.24,2-3.39-1.5-3.5-3.22.23-4.26-1.39-1.2-1.87-1.9-1.66-2.79-1C53.3,59,53.2,58.84,52.61,60.66Z"/>
      <path class="cls-1" d="M136.48,48.57a1.52,1.52,0,0,0-1.11-.07c-1.74.46-6.89,1.63-10.19.4-2.51-.93-3.07-.31-3.14.28a.84.84,0,0,0,.51.91c1.3.57,3.12,2.86,8.58,1.8C136.16,50.92,137.34,49.05,136.48,48.57Z"/>
      <path class="cls-1" d="M135.69,53.54a1.2,1.2,0,0,0-.85-.11c-1.41.24-5.57.82-7.94-.25-1.81-.82-2.34-.4-2.48,0a.53.53,0,0,0,.27.69c.92.48,2,2.26,6.37,1.78C135.1,55.24,136.29,53.94,135.69,53.54Z"/>
    </g>
    <g>
      <path class="cls-2" d="M95,14.73c-1.19,1-.14,2.44-1,8.58a54,54,0,0,1-1.92,8.26A46.29,46.29,0,0,1,88,42a61,61,0,0,1-7.21,9.69C79.66,53.11,78.66,54.23,78,55l4.31,4.19a30.36,30.36,0,0,0,6.32-3.38c5.25-3.68,8.13-8.24,10.37-11.88,2.94-4.76,3-6.35,6.1-10.41a22.44,22.44,0,0,1,5.33-5.39c2.33-1.6,3.3-1.52,3.57-2.37C115.13,22,98.83,11.55,95,14.73Z"/>
      <path class="cls-3" d="M106.06,30.88c1.35.62,3.37,1.5,5.88,2.39a59.52,59.52,0,0,0,23.43,3.58c5.63-.33,9.41-.62,11.46-3.43,1.71-2.34,1.8-5.91.71-8.63-4.76-11.88-33.93-12.39-48.3-11.21-1.38.12-2.51.24-3.23.32A19.26,19.26,0,0,1,105.42,21c1.11,1.68,2.9,4.37,2.08,7.3A6.34,6.34,0,0,1,106.06,30.88Z"/>
      <path class="cls-4" d="M105.85,28c-1.58,2.15-1,3-4.65,9.61-2.83,5.12-4.51,8.07-7.84,10.92-2.38,2-2.72,1.53-6.91,4.85-2.42,1.91-3.17,2.76-4.69,2.9-2,.18-3-1-6.29-2.85-2.2-1.24-1.81-.74-6.84-3-8.75-4-8.49-4.85-11.24-5.22a15.69,15.69,0,0,0-9.94,2.25c-4.56,2.82-6.18,7.21-7.19,9.93s-2.2,5.94-1.28,9.59c.66,2.66,2.52,5.74,9.06,9.63,4,2.37,11.9,6.34,26.43,7.89a104.84,104.84,0,0,0,24.69,0c4.83-.61,11.78-1.85,18.92-1.8,5.24,0,10.42.67,10.42.67,1.75.21,3.23.44,4.35.63a60.92,60.92,0,0,0,3.28-14.36,72.27,72.27,0,0,0,.09-13.07c-.22-2.61-.49-4,0-6.08.67-2.71,2.05-4.25,4.88-7.71,1.53-1.86,3.81-4.69,6.61-8.3a9.78,9.78,0,0,0-.81-4.56C141.93,18.93,113.59,17.41,105.85,28Z"/>
      <path class="cls-5" d="M106.56,86.74c1.82,2.28,4.44,5.85,8.38,11.51,5-5,6.58-10.39,4.8-12.61-1.2-1.5-4-1.68-4.87-1.73a10.17,10.17,0,0,0-5.65,1.34c-1.42-.59-3.32-1.26-3.71-.71S106.16,86.24,106.56,86.74Z"/>
      <path d="M112.77,80.42a34.85,34.85,0,0,1,9.15.82c1.82.44,4.77,1.35,7.51,1.15l2.82-.21,2.29-1.32c-1.56,2.62-2.72,4.83-3.49,6.37,0,0-1,1.94-4.08,8.91L125.64,99,115,98l3.68-11.18a12.09,12.09,0,0,0-4.6-1.64c-2.77-.36-4.28.52-9.2,1.9a62.92,62.92,0,0,1-8.94,2,75.55,75.55,0,0,1-8.09.47c-6.85.24-10.27.36-11.08.32A51.4,51.4,0,0,1,64,87.41a70.47,70.47,0,0,1-15.56-6.76C44,78.17,41.25,76.08,38.94,73a22.71,22.71,0,0,1-1.58-2.39c0-6,.53-9.09,1.46-9.23s1.9,1.9,3.32,6.06a30.78,30.78,0,0,0,3.91,4.44c3.37,3.14,6.59,4.67,10.48,6.47a64,64,0,0,0,10.82,3.85,68.79,68.79,0,0,0,22.74,2c2.14-.19,4.55-.64,9.38-1.53C108.46,81,109.14,80.44,112.77,80.42Z"/>
      <g id="sznurowki-2" data-name="sznurowki">
        <path d="M105.06,53.3c.85-.77.71-1.93.89-3.34a26.43,26.43,0,0,1,1.63-4.59c2-4.88,2.49-4.82,2.68-6.67,0-.46,0,0-.45-4.72-.21-2.41-.28-3.54-1.18-4.38a4.64,4.64,0,0,0-1.8-1,6.74,6.74,0,0,0-2.62-.32c-2,.09-3.61-.7-6.86-2.14a31.69,31.69,0,0,1-3.59-1.89c-.26,1-.52,2.05-.79,3.07a22.47,22.47,0,0,0,3.59,1.89,15.4,15.4,0,0,0,4.7,1.36c2.38.24,3.07-.43,4.17.27a4.6,4.6,0,0,1,1.66,3,11.11,11.11,0,0,1-.38,5.35,27,27,0,0,1-3.14,7.1,10.48,10.48,0,0,0-1.7,3.06,8.54,8.54,0,0,0-.17,3.9l-.11.54s-.21,1-.7,3.43l1.63.58c-.33-2.26.16-3.24.71-3.71S104.41,53.89,105.06,53.3Z"/>
        <path d="M104.52,35.14c-.74-.24-1.23.33-2.37.68a7.24,7.24,0,0,1-4.71-.46c-1.14-.44-3-1.16-3.85-2.89-.57-1.21-.33-2.27-.94-2.47s-1.23.42-1.57,1a3.24,3.24,0,0,0,0,2.72,6.31,6.31,0,0,0,2.57,3,11.9,11.9,0,0,0,5,2.1c2.65.43,6.71.18,7.2-1.4A2.12,2.12,0,0,0,104.52,35.14Z"/>
        <path d="M88.27,39.71a1.61,1.61,0,0,0-.84,1.52c.09.49.61.82,2,1.32,2.82,1,3.13.54,4.42,1.27a14.46,14.46,0,0,1,3,2.6c.58.64.91,1.12,1.43,1.12a1.92,1.92,0,0,0,1.58-1.88c-.08-1-1.52-1.32-4.48-2.81C91.05,40.67,89.56,39,88.27,39.71Z"/>
        <path d="M94.68,55.09c-1.36-.62-1-2-2.38-3.59a34.2,34.2,0,0,0-4.48-2.81c-1.77-1-2.36-1.38-2.59-2.15-.33-1.07.19-2.49,1-2.7s1.19.89,3.13,2.33,2.26,1,4,2.36a12.28,12.28,0,0,1,2.84,3.14c.71,1.13,1.5,2.39,1,3.11S95.57,55.49,94.68,55.09Z"/>
        <path d="M83.73,49.06c-1.22.16-2.45,1-2.4,1.58s1.56.45,3.06,1.7c.88.73.53.92,2.2,3.22,1.36,1.87,1.52,1.64,2.3,2.95.6,1,.78,1.62,1.24,1.66.63,0,1.33-1.07,1.58-1.87C92.78,54.75,87.64,48.52,83.73,49.06Z"/>
        <path d="M91.24,32.24c-1,1.31-1.33,1.36-2.51,2.76-1.46,1.74-1.34,2-2.14,2.59-.6.41-1,.44-3.65.83-4.08.6-4.6.72-5.28,1.16-1.17.76-1.46,1.56-2,1.41-.76-.19-1.33-1.92-.75-3s2-1.23,4.2-1.54,2.51,0,3.82-.47a8.51,8.51,0,0,0,2.76-1.76c2-1.68,1.82-2.53,3.44-3.65s3.4-1.57,3.74-1.11S92.24,31,91.24,32.24Z"/>
      </g>
      <path class="cls-6" d="M46.17,57.41a2.22,2.22,0,0,0,1.57-.27c1.92-1.15,7.78-4.31,13.44-3.84,4.31.35,4.48-.61,4-1.39a2.14,2.14,0,0,0-1.57-1c-2.31-.29-7-2.6-13.39.52C44.33,54.34,44.53,57.09,46.17,57.41Z"/>
      <path class="cls-7" d="M127.13,64.85A3,3,0,0,0,124,66.12c-1.37,1.31-.1,2.37-1.17,3-.87.54-.37,1.68,0,2.37s.21,1.6,2.36,1.63c2.6,0,2.13,2.25,3.17,1.66,3.17-1.8-.3-3.15,1.16-4.32,1.68-1.35,1.47-2,.86-2.84C128.65,65.38,128.81,65.27,127.13,64.85Z"/>
      <path class="cls-8" d="M114.44,42.65a1.79,1.79,0,0,0-1.91.52c-.79.62,0,1.22-.59,1.51s-.16.84.08,1.21.2.84,1.54,1c1.62.13,1.42,1.24,2,1,1.89-.79-.32-1.64.53-2.18s.83-1,.42-1.42C115.4,43,115.5,42.94,114.44,42.65Z"/>
      <path class="cls-9" d="M115.68,51.3c-1.1-.62-2.14.36-2.56.63-1.37.89-.87,1.91-1.82,2.3-.77.33-.82,1.32-.83,1.92s-.41,1.33,1,1.64c1.73.36.66,2.1,1.56,1.75,2.75-1,.88-2.6,2.26-3.36,1.6-.88,1.69-1.45,1.55-2.2C116.52,51.93,116.67,51.86,115.68,51.3Z"/>
      <path class="cls-10" d="M52.61,60.66a3.16,3.16,0,0,0,1,3.46c1.19,1.53,2.39.18,2.94,1.36.46,1,1.66.46,2.39.11s1.65-.18,1.89-2.53c.3-2.82,2.49-2.24,2-3.39-1.5-3.5-3.22.23-4.26-1.39-1.2-1.87-1.9-1.66-2.79-1C53.3,59,53.2,58.84,52.61,60.66Z"/>
      <path class="cls-6" d="M136.48,48.57a1.52,1.52,0,0,0-1.11-.07c-1.74.46-6.89,1.63-10.19.4-2.51-.93-3.07-.31-3.14.28a.84.84,0,0,0,.51.91c1.3.57,3.12,2.86,8.58,1.8C136.16,50.92,137.34,49.05,136.48,48.57Z"/>
      <path class="cls-11" d="M135.69,53.54a1.2,1.2,0,0,0-.85-.11c-1.41.24-5.57.82-7.94-.25-1.81-.82-2.34-.4-2.48,0a.53.53,0,0,0,.27.69c.92.48,2,2.26,6.37,1.78C135.1,55.24,136.29,53.94,135.69,53.54Z"/>
    </g>
  </g>
</svg>
