<svg xmlns="http://www.w3.org/2000/svg" width="120" height="96" viewBox="0 0 120 96">
  <defs>
    <style>
      .cls-1, .cls-6 {
        fill: #90b6f1;
      }

      .cls-2, .cls-7 {
        fill: #6098ea;
      }

      .cls-3 {
        fill: #d2dff4;
      }

      .cls-4 {
        fill: #1d1d1b;
      }

      .cls-5 {
        fill: #f2f2f2;
        opacity: 0.62;
      }

      .cls-6 {
        opacity: 0.3;
      }

      .cls-7 {
        opacity: 0.38;
      }

      .cls-8 {
        fill: #e6e6e6;
      }
    </style>
  </defs>
  <g id="won_game">
    <g id="fish">
      <path class="cls-1" d="M81.79,15.88c-.4-2.21-.73-4.81-1.94-6.21-2.2-2.56-7-3.91-9.91-3.34a26.25,26.25,0,0,0-8.13,2.9c-.34-2-.73-4.06-1.77-5.27C57.85,1.4,53.09.05,50.13.62a28.44,28.44,0,0,0-9.74,3.8,29.29,29.29,0,0,0-7,5.53,76.18,76.18,0,0,0-5.22,6.39l24.34.06c-2.07,2.28-3.29,4.1-4.53,5.65l34,.08A20.33,20.33,0,0,0,81.79,15.88Z"/>
      <path class="cls-2" d="M89.5,51.18c.72-2.86-.27-4.13,3.07-9.78,4.06-6.87,5.23-6.9,7.72-8.55a24.28,24.28,0,0,1,9.71-3c6.37-.46,6.37-.46,7.88.56.67.44.79.05-.45,6.33-1.5,7.67-4.09,9.21-6.34,11.37a16.92,16.92,0,0,1-3.34,2.49,58.25,58.25,0,0,0,2,5.59c1.62,3.92,2.38,4.55,3.43,7.52s2.46,7,.94,9.15c-1.08,1.53-3.13,1.5-4.86,1.48A16.11,16.11,0,0,1,100,71C94.94,67.24,87.63,58.59,89.5,51.18Z"/>
      <path class="cls-1" d="M79.48,83.49c-.64,2.15-1.26,4.7-2.61,6-2.47,2.3-7.35,3.12-10.22,2.23a25.92,25.92,0,0,1-7.75-3.79c-.56,1.92-1.18,4-2.35,5-2.47,2.3-7.35,3.11-10.22,2.22a28.49,28.49,0,0,1-9.26-4.86A29.48,29.48,0,0,1,30.7,84a74,74,0,0,1-4.47-6.92l24.2,2.64c-1.81-2.5-2.82-4.45-3.88-6.12l33.77,3.67A20.31,20.31,0,0,1,79.48,83.49Z"/>
      <path class="cls-3" d="M97.27,54.52c.1-.59,1.08-2.45.17-7.55-1.14-6.41-2-8.34-2.32-9-4-9.32-7-13.32-9.35-15.59-4.08-3.91-8-7.08-10.87-8.27-1.45-.59-4.43-1.72-13.31-3.25A164.05,164.05,0,0,0,40.4,8.45c-9.08-.39-12,.26-14.19.93A26.19,26.19,0,0,0,13.43,17,42.7,42.7,0,0,0,6.3,27.78,51.06,51.06,0,0,0,1.7,42.53l28.73,5.33L1.63,54.93A36.63,36.63,0,0,0,3,60.79c3,9.57,8.93,13,15.44,16.58s12.38,4.44,23.92,6.06c7.06,1,12.14,1.68,19.38,1a35.71,35.71,0,0,0,19.08-7.71c9.18-7.16,4.93-3.53,10.3-9.15A26,26,0,0,0,97.27,54.52Z"/>
      <ellipse class="cls-4" cx="27.6" cy="28.07" rx="5.96" ry="6.45" transform="translate(-4.99 50.15) rotate(-79.61)"/>
      <path class="cls-5" d="M29,33a7.08,7.08,0,0,0,2.37-4.46c.17-2.61-.47-3.93-.77-4.21"/>
      <g id="luski">
        <path class="cls-6" d="M46.26,38.91a34.21,34.21,0,0,1,3.52.08,4.11,4.11,0,0,1,2.59,2,5.47,5.47,0,0,1,.84,1.94,5.9,5.9,0,0,1-.06,2.88,5.67,5.67,0,0,1-.92,1.89,5.31,5.31,0,0,1-.9.94,4.41,4.41,0,0,1-1.78.93,8.46,8.46,0,0,1-1.76,0c-.88,0-1.76,0-2.64-.06l-.88,0-1.75,0A37.81,37.81,0,0,0,43,43.5a31.57,31.57,0,0,0-.29-4.66A31.82,31.82,0,0,0,46.26,38.91Z"/>
        <path class="cls-6" d="M65.91,23A33.92,33.92,0,0,1,69.43,23a4.11,4.11,0,0,1,2.67,1.85A5.5,5.5,0,0,1,73,26.7a6,6,0,0,1,0,2.88,5.85,5.85,0,0,1-.85,1.94,5.58,5.58,0,0,1-.87,1,4.47,4.47,0,0,1-1.74,1,7.61,7.61,0,0,1-1.76,0c-.88,0-1.76.05-2.64.07l-.88,0-1.76,0a36.63,36.63,0,0,0,.3-5.9,30.22,30.22,0,0,0-.44-4.64A32.19,32.19,0,0,0,65.91,23Z"/>
        <path class="cls-7" d="M77.44,32.29c2,0,2.63.17,3.51.22a4,4,0,0,1,2.45,2.08,5.29,5.29,0,0,1,.7,2,6,6,0,0,1-.26,2.87,5.79,5.79,0,0,1-2,2.76A4.5,4.5,0,0,1,80,43c-.33.07-.3,0-1.75-.11-.88-.07-1.75-.11-2.63-.16l-.88-.06L73,42.58a38,38,0,0,0,.92-5.85,30.93,30.93,0,0,0,.05-4.66A33.21,33.21,0,0,0,77.44,32.29Z"/>
        <path class="cls-7" d="M76.64,49.78c2-.08,2.64,0,3.52.06a4.19,4.19,0,0,1,2.6,2,5.73,5.73,0,0,1,.85,1.94,6,6,0,0,1-.06,2.87,5.53,5.53,0,0,1-.91,1.9,5,5,0,0,1-.9,1,4.41,4.41,0,0,1-1.77.93,7.22,7.22,0,0,1-1.76,0c-.88,0-1.76,0-2.64,0h-.88l-1.76,0a36.24,36.24,0,0,0,.49-5.89,30.79,30.79,0,0,0-.3-4.66A29.14,29.14,0,0,0,76.64,49.78Z"/>
        <path class="cls-6" d="M87.49,40.88c2-.08,2.63,0,3.51.06a4.2,4.2,0,0,1,2.61,2,5.67,5.67,0,0,1,.84,1.94,5.82,5.82,0,0,1,0,2.87,5.73,5.73,0,0,1-.91,1.9,5.3,5.3,0,0,1-.9,1,4.56,4.56,0,0,1-1.77.93,8,8,0,0,1-1.76,0c-.88,0-1.76,0-2.64-.05h-.88l-1.76,0a37.42,37.42,0,0,0,.49-5.89,32.36,32.36,0,0,0-.3-4.66A29.12,29.12,0,0,0,87.49,40.88Z"/>
        <path class="cls-6" d="M65.52,57.56a35.07,35.07,0,0,1,3.51.2,4.06,4.06,0,0,1,2.47,2.07,5.34,5.34,0,0,1,.71,2,5.92,5.92,0,0,1-1.28,4.73,5.78,5.78,0,0,1-1,.91,4.57,4.57,0,0,1-1.83.85,7.54,7.54,0,0,1-1.76-.1c-.88-.07-1.75-.1-2.63-.15L62.87,68l-1.76-.1A37.1,37.1,0,0,0,62,62a32.28,32.28,0,0,0,0-4.66A30.29,30.29,0,0,0,65.52,57.56Z"/>
        <path class="cls-7" d="M65.68,40.45c2-.07,2.64.06,3.52.07a4.22,4.22,0,0,1,2.59,2,5.71,5.71,0,0,1,.84,1.93,6,6,0,0,1-.06,2.88,5.9,5.9,0,0,1-.92,1.9,5.67,5.67,0,0,1-.9.94,4.43,4.43,0,0,1-1.78.92,7,7,0,0,1-1.76,0c-.88,0-1.76,0-2.64-.05l-.88,0-1.76,0A36.86,36.86,0,0,0,62.45,45a33.23,33.23,0,0,0-.29-4.66A29.9,29.9,0,0,0,65.68,40.45Z"/>
        <path class="cls-7" d="M56,30.46a34.21,34.21,0,0,1,3.52.08,4.11,4.11,0,0,1,2.59,2,5.47,5.47,0,0,1,.84,1.94,5.86,5.86,0,0,1-.06,2.87,5.6,5.6,0,0,1-.92,1.9,5.31,5.31,0,0,1-.9.94,4.43,4.43,0,0,1-1.78.92,7,7,0,0,1-1.76,0c-.88,0-1.76,0-2.64,0L54,41l-1.75,0A37.83,37.83,0,0,0,52.73,35a31.41,31.41,0,0,0-.29-4.65A31.82,31.82,0,0,0,56,30.46Z"/>
        <path class="cls-7" d="M55.54,48.67a34.21,34.21,0,0,1,3.52.08,4.13,4.13,0,0,1,2.59,2,5.47,5.47,0,0,1,.84,1.94,5.86,5.86,0,0,1-.06,2.87,5.6,5.6,0,0,1-.92,1.9,5.31,5.31,0,0,1-.9.94,4.43,4.43,0,0,1-1.78.92,7.22,7.22,0,0,1-1.76,0c-.88,0-1.76,0-2.64-.06l-.88,0-1.76,0a36.85,36.85,0,0,0,.52-5.88A33.16,33.16,0,0,0,52,48.6,31.82,31.82,0,0,0,55.54,48.67Z"/>
        <path class="cls-7" d="M46.37,19.43a34.91,34.91,0,0,1,3.51.07,4.15,4.15,0,0,1,2.6,2,5.87,5.87,0,0,1,.84,1.94,6.07,6.07,0,0,1-.07,2.88,5.69,5.69,0,0,1-.92,1.9,5.28,5.28,0,0,1-.9.94,4.48,4.48,0,0,1-1.78.92,8.35,8.35,0,0,1-1.75,0c-.88,0-1.76,0-2.64-.06l-.88,0-1.76,0A37.92,37.92,0,0,0,43.13,24a30.83,30.83,0,0,0-.28-4.66A32.23,32.23,0,0,0,46.37,19.43Z"/>
        <path class="cls-7" d="M45.7,61.14a33,33,0,0,1,3.51.19,4,4,0,0,1,2.5,2.05,5.44,5.44,0,0,1,.74,2,6,6,0,0,1-.2,2.87,6.12,6.12,0,0,1-1,1.87,5.9,5.9,0,0,1-.94.91,4.55,4.55,0,0,1-1.83.86,7,7,0,0,1-1.75-.09c-.88-.06-1.76-.09-2.64-.13l-.87,0-1.76-.09a38.73,38.73,0,0,0,.8-5.87A31.33,31.33,0,0,0,42.18,61,29.38,29.38,0,0,0,45.7,61.14Z"/>
      </g>
      <path class="cls-8" d="M37,18.09a9.2,9.2,0,0,1,.42-3.46c.35-.69.7-1.38,1.34,0,1,2.16,1.44,21.61,1.44,25.06a94.19,94.19,0,0,1-1,13.89,95.65,95.65,0,0,1-1.6,11.09s-2.95,11-3.62,11c-.25,0-.54-.72-.64-1.41a8.62,8.62,0,0,1,0-1.39c0-.27.71-2.65.74-2.76.74-2.77,1.51-6.92,1.51-6.92a101.1,101.1,0,0,0,1.92-10.39,82,82,0,0,0,.89-9.71A206.83,206.83,0,0,0,37,18.09Z"/>
    </g>
  </g>
</svg>
